<svg xmlns="http://www.w3.org/2000/svg" viewBox="0 0 1920 557.98"><defs><style>.cls-2{fill:#dde7ff;stroke:#cddcff;stroke-miterlimit:10}</style></defs><g id="Layer_2" data-name="Layer 2"><g id="Layer_1-2" data-name="Layer 1"><path d="M0 0h1920v557.98H0z" style="fill:#e6edff"/><path d="M1860.53 86.34a5.7 5.7 0 0 0-1.33-1.74 12.3 12.3 0 0 1-2.23-3.26c-.72-1.52-1.33-3.41-2.94-3.93-1.27-.44-2.69.09-4 .09a4.73 4.73 0 0 1-3.59-1.43 12.1 12.1 0 0 1-2.37-4.14c-.91-1.15-1.36-3.3-1.92-4.68-.67-1.62-1.33-3.26-2-4.89s-1.34-3.26-2-4.89c-.48-1.18-.74-2.93-2.32-2.91-.73 0-1.44.26-2.15.19-1.53-.21-2.59-2-4.15-2s-2.52 1.57-3.93 2.11a7.65 7.65 0 0 1-3.47.06c-1.82-.18-3.59 0-3.77 2.23a16.5 16.5 0 0 0 .27 2.88 3.46 3.46 0 0 1-.65 2.72c-.49.56-1.27.82-1.68 1.43a3.47 3.47 0 0 0-.42 1.84c-.26 7.94-1.07 16.1-.62 24a2.9 2.9 0 0 1-.73 2.46 6 6 0 0 1-1.33.65 4 4 0 0 0-.83.54 18 18 0 0 0-1.74 1.88 4 4 0 0 1-1.61 1.19c-.35.12-.76.22-1.25.34-3.36.79-6.7 2.24-10 3.36l-9.47 3.19-10.3 3.48c-3.51 1.17-9.28 1.89-12.07 4.3a32.5 32.5 0 0 0-6.28 8.41c-1.35 2.43-5 5.86-4 8.74a2.76 2.76 0 0 0 3.27 1.86 4.8 4.8 0 0 1 1.27-.47c1.1 0 1.66 1.38 1.56 2.48a6.61 6.61 0 0 1-5.38 5.85c-1.83.28-3.94-.14-5.31 1.07-.72.62-1.07 1.56-1.75 2.21-1 1-2.56 1.15-4 1.26-3.71.27-23-.78-16.17 7.69a4.7 4.7 0 0 1 1.42 3.12c-.11 1.3-1.24 2.25-2.29 3-2.56 1.92-5.12 3.82-7.72 5.69l-5 3.6c-1.64 1.18-3.44 2.41-5.17 3.59q-4.65 3.18-9.35 6.23a53 53 0 0 0-4.89 3.15c-1 .85-1.73 2.1-3 2.66a2.34 2.34 0 0 1-2.76-.53c-.48-.66-.48-1.62-1.08-2.17-.76-.66-2-.27-2.93-.57a2.89 2.89 0 0 1-1.85-2.3 8 8 0 0 1 .17-3.08c.4-2.31.8-4.6 1.2-6.89.16-.87.48-1.91 1.33-2.06s1.47.59 2.26.7a2 2 0 0 0 2-1.77 6 6 0 0 0-.48-2.88c-1.35-4-2.68-8.07-4-12.09-.55-1.7-1.25-3.39-1.78-5.08-.41-1.39-.51-3.14-2.19-3.64s-3 .89-4.15 2.12l-3.89 4.42a7.6 7.6 0 0 1-2.21 1.9 2.48 2.48 0 0 1-2.74-.26c-1.19-1.15-.33-3.21.94-4.26s2.94-1.78 3.69-3.24a7.1 7.1 0 0 0 .43-3.59c-.15-2.57-.31-5.13-.46-7.72-.13-2.26.1-4.64-.16-6.86a4.54 4.54 0 0 0-1.7-3.17 27 27 0 0 1-2.38-1.35c-.53-.43-.87-1.06-1.43-1.45-1.48-1-3.54 0-5.29-.36-2.28-.49-3.7-3.36-6-3.26a13 13 0 0 0-2.36.63 2.26 2.26 0 0 1-1 .05l-.06.52c.4 2 .71 4.4-.67 5.93-.65.71-1.51 1.16-1.67 2.18s.57 1.83 0 2.91c-.44.84-1.74 1.24-2.33.52-.14 0-7.1 5.34-7.75 5.83-.9.67-2.15.93-2.94 1.58-1 .84-1 2.54-1 3.73.24 5.29.47 10.6.72 15.91 1.73 1.46 3.62 3.16 4.22 5.34a10.6 10.6 0 0 1 .27 2.91v12.51c-2 2-4.12 3.94-6.19 5.91-.48.46-1 .91-1.46 1.38-.86.82-2.36 2.92-3.56 3.05a1.5 1.5 0 0 1-.61-.1 4.23 4.23 0 0 1-2.2-2.21c-.47-1.19-.48-2.52-1-3.67-.68-1.47-2.12-2.44-3-3.82a5.8 5.8 0 0 1-.87-2.8c-.07-1.36.16-2.73.13-4.18-.06-3.47-.53-6.36.17-9.77.77-3.76.24-8.19.31-12a9.94 9.94 0 0 1 .74-4.43c.45-.85 1.11-1.56 1.49-2.44.61-1.53.18-3.28.43-4.91.46-3 3.08-5.12 4.26-7.89.29-.68.31-1.74-.42-1.88-.47-.09-.87.33-1.18.7-2.31 2.82-4.61 5.63-6.92 8.47-1.14 1.39-2.46 2.74-3.48 4.22-.54.81-1.16 2.93-2.52 2.42-.73-.28-.82-1.29-.61-2 .7-2.44 3.16-4 4.48-6.14a8.3 8.3 0 0 0 .62-1.32c.88-2.34.69-5 .49-7.55-.14-1.61 1.58-2.4 3-3.1s3.08-1 4.48-1.76a13.4 13.4 0 0 0 3.23-3 12.2 12.2 0 0 1 3.3-2.92c2.65-1.41 5.71 0 8.5-1.12a21.7 21.7 0 0 1 4.76-1.82c1.69-.27 3.69.35 4.34 1.93l.09.22a4.8 4.8 0 0 1 2.23-.33 17.4 17.4 0 0 1 3.39.28c1.16.26 2.14.82 3.37.56a2.25 2.25 0 0 0 1.85-2.62c-.39-1.16-1.83-1.47-2.93-2a10.8 10.8 0 0 1-3.1-2.6 11 11 0 0 0-3.06-2.64 3.74 3.74 0 0 0-3.85.16c-.65.51-1.35 1.36-2.08 1-.49-.25-.59-.89-.63-1.44-.06-1.07.6-4-.59-4.51a3.3 3.3 0 0 0-2.29.26c-3.86 1.48-7.71 2.93-11.56 4.4-2.85 1.08-2.85 2.54-3.19 5.33a1.18 1.18 0 0 1-.31.75.83.83 0 0 1-1.12-.28c-.94-1.26-1.05-2.18-2.67-2.87a21 21 0 0 0-4.45-1c-2-.4-13.14-2.32-12.78-4.72a3.84 3.84 0 0 1 1.64-2.17c2.17-1.73 4.32-3.48 6.49-5.23a5.4 5.4 0 0 0 1.51-1.59 1.87 1.87 0 0 0-.11-2.08c-.85-.94-2.36-.34-3.45.31-4.12 2.06-8 4.82-12 7.2a59 59 0 0 0-10.36 8 19 19 0 0 1-2 1.74 5.1 5.1 0 0 1-2.06.91 2.6 2.6 0 0 1-1.59-.18 1.52 1.52 0 0 1-.87-1.3c0-.58.39-1.09.45-1.66a2 2 0 0 0-2-2.09 4.4 4.4 0 0 0-2.94 1.13 19 19 0 0 1-2.59 1.93c-1.88 1-4.16.76-6.28.48-.77-.09-1.66-.27-2-1a2 2 0 0 1-.13-.3 1.82 1.82 0 0 1 .27-1.3 5.1 5.1 0 0 1 1.19-1.18l13.09-10.31c1.67-1.32 3.36-2.6 5-4 1.38-1.11 2.94-2 4.25-3.18a1.54 1.54 0 0 0 .62-1.07 1 1 0 0 0-.74-.9 3.2 3.2 0 0 0-1.24-.09c-6.75.38-13.51.65-20.24 1.06a10.9 10.9 0 0 1-3.22-.1 3.69 3.69 0 0 1-2.53-1.85c-.34-.69-.44-1.61-1.14-2a13 13 0 0 0-1.41-.31c-.87-.33-1.1-1.42-1.27-2.34s-.57-2-1.5-2.13c-1.16-.14-1.75 1.31-2.52 2.19a4.27 4.27 0 0 1-3.72 1.2 12.8 12.8 0 0 1-3.8-1.3l-16-7.51q-11.64 0-23.28-.09c-24.3-.25-48.65-1.13-72.86-2.79h-.14l-126.42-28-10.33-2.29L1244 20.25c-.06 3.37-.25 6.73-.43 10.09-.09 1.65-.19 3.29-.25 4.95 0 .85.42 3.31-.43 3.81-.5.28-1.13.32-1.54.73s-.43 1.37-.46 2.13a5.29 5.29 0 0 1-3.82 4.83c-.37.11-.85.12-1.06-.2a1 1 0 0 1-.09-.53l-.09-7.66a23 23 0 0 1 0-3.5c.14-.91.76-1.85 0-2.69a2.6 2.6 0 0 0-1.32-.62l-6-1.58a12.2 12.2 0 0 1-3.08-1.11c-2.82-1.67-4.74-5.31-6.71-7.88-.15-.2-.34-.42-.58-.43-.48-.05-.68.58-.73 1.06-.57 7.29-.81 14.66-1.25 22a6.7 6.7 0 0 0 .34 3.27c.24.54.65 1 .91 1.56a1.84 1.84 0 0 1 .06 1.72c-.48.8-1.65.77-2.41 1.33a3.66 3.66 0 0 0-1.15 2.31c-.17.83-.43 1.75-.68 2.66a14.7 14.7 0 0 0-.7 4.12c0 2 .33 3.34-1.53 4.9-1.52 1.26-3.43 2-4.69 3.53s-1.62 3.75-2.18 5.74a45 45 0 0 1-5 10.5l-7.24 12.3c-1.24 2.09-2.46 4.18-3.7 6.29-.52.9-.85 1.84-1.73 2.09s-1.53-.36-2.39.43a2.33 2.33 0 0 0-.49 2.66c.4.84 1.28 1.35 1.79 2.12.79 1.18.64 2.71.44 4.1-.25 1.78-.51 3.58-.79 5.36-.64 4-1.32 8-2.08 12.06-.4 2.06-.26 4.16-1.78 5.69a80 80 0 0 1-6.81 5.89 6.6 6.6 0 0 0-1.74 1.79 2.23 2.23 0 0 0 0 2.38c.54.75 1.58.89 2.34 1.41 1.31.9 1.58 2.68 1.73 4.26.42 4.07.71 8.56-1.66 11.89-1.06 1.51-2.72 3.14-2.09 4.87.36 1 1.26 1.46 2 2.15a10.6 10.6 0 0 1 1.65 3l3.65 7.62c.73 1.52 1.47 3.19 1.07 4.83-.18.79-.63 1.5-.88 2.27a2.19 2.19 0 0 0 .4 2.3c.84.74 1.7.55 2.11 1.88a6.8 6.8 0 0 1 .07 2.07c0 2.77-.12 5.52-.23 8.29a63 63 0 0 1-.28 7.52 2.92 2.92 0 0 0 .74 2.85c.44.31 1 .42 1.43.71a2.8 2.8 0 0 1 1.08 1.94 17 17 0 0 1 .11 2.27c.14 3 1.66 5.71 3.27 8.24 1.33 2.07 3 4.5 3.53 7a17.8 17.8 0 0 1 .2 3.79c-.07 3.07-.13 6.13-.19 9.2 0 1.28.08 2.51.11 3.76s-.14 2.48.76 3.51a5.4 5.4 0 0 0 3 1.37l6.36 1.37c2 .42 4.11.92 5.6 2.31.9.85 1.5 1.95 2.37 2.83 2 2 5.15 3.24 7.8 4a3.69 3.69 0 0 1 2.68 2.17 5.35 5.35 0 0 1-.41 2.81 4.13 4.13 0 0 0 .14 2.48 4.75 4.75 0 0 0 3.55 3.31c.83.16 1.81.13 2.41.75a3.18 3.18 0 0 1 .53 2.44 4.84 4.84 0 0 0 1 3.76c.52.53 1.27.84 1.68 1.46a3.7 3.7 0 0 1 .44 1.89c.14 3.46.29 6.91.45 10.38 10.75.47 21.8.85 32.55 1.32.12 1 .27 2.1.43 3.17.12.81.23 1.61.32 2.37 14.85 8 29.71 15.93 44.43 24.16 2.3 1.3 4.61 2.58 6.91 3.87l26.09 3.95 11.54 1.75 1.7-6.85c6.73 0 13.39.92 20.1 1.37.48.66 1 1.33 1.46 2 3.68 5 7.43 10 11.11 15.07 1.1 1.52 2.36 3.14 4.18 3.59a5.8 5.8 0 0 1 2.52.73 3.76 3.76 0 0 1 .93 2.59c.47 3.57 2 6.9 3.36 10.2a45 45 0 0 1 1.88 4.79c.34 1.23.26 2.9 1.7 3.46a8 8 0 0 0 1.47.26 6.8 6.8 0 0 1 3.08 1.93c4.38 3.92 9.42 7 14.44 10a1.61 1.61 0 0 0 1.33.34c.63-.25.7-1.15.39-1.74s-.84-1.05-1.12-1.65c-.57-1.3.2-2.77 1-4a65 65 0 0 1 3.9-5.23c.94-1.16 1.86-3.22 3.6-3.05a5.4 5.4 0 0 1 3 1.78 6.77 6.77 0 0 0 2.93 2c1.58.39 3.19-.49 4.83-.52 2.75 0 4.92 2.29 6.62 4.47 3.44 4.36 6.61 8.91 9.68 13.54 1.53 2.32 3 4.66 4.5 7a48 48 0 0 0 4.23 6.06 6.26 6.26 0 0 0 3.51 2.13c.94.17 2.07.09 2.69.84a2 2 0 0 1 .28 1.84 10.3 10.3 0 0 1-.76 1.79 10.68 10.68 0 0 0 .68 8.77 33.4 33.4 0 0 0 5.5 7.18 41 41 0 0 1 3.47 4.28 10.14 10.14 0 0 0 3.86 3.64 11.5 11.5 0 0 0 4.32.74c3.45.14 6.91.28 10.36.44 1.68.06 3.37.12 5.06.2.42 0 1.28.22 1.69 0 1.3-.7-.5-2.49-1.15-3a12.6 12.6 0 0 1-2.68-2.47 7.4 7.4 0 0 1-.86-3.76c-.17-2.86-.72-6-.51-8.82.1-1.58.2-3.16.23-4.74 0-1.05-.28-2.15.57-3 .59-.56 1.38-.88 2-1.43 1-.93.81-1.9 1.26-3a5.4 5.4 0 0 1 2.29-2.13c9.92-6.2 19.79-12.52 29.82-18.51.51-.29 1.1-.72 1-1.31-.11-1-1.64-1-2.21-1.74a2.18 2.18 0 0 1-.25-1.39c.09-1.72.23-3.45.45-5.17a1.86 1.86 0 0 1 .69-1.48 1.48 1.48 0 0 1 1.74.65 5.2 5.2 0 0 1 .83 2.78c.1 1.24.06 2.82.73 3.93s2.24.85 3.48.45c4.09-1.33 8.14-2.75 12.17-4.3q3.51-1.31 7-2.74c.65-.26.76-.08 1.3.36a9.8 9.8 0 0 1 1.37 1.56 8.2 8.2 0 0 0 4.69 2.13A60 60 0 0 0 1580 384c.9 0 2.09-.17 2.2-1.07s-.85-1.3-1.36-2a2.24 2.24 0 0 1 .14-2.86 2.27 2.27 0 0 1 2.88-.2c.86.68 1.08 1.87 1.5 2.89 1 2.59 3.45 4.34 5.9 5.65 2 1.05 3.88 2.14 5.83 3.19 1.41.77 3.3 1.42 4.63.14.7-.68 1.18-1.81 2.15-1.83s1.5 1 2.31 1.46a4.33 4.33 0 0 0 2.6.31l7.43-.65c1.16-.11 2.61-.45 2.83-1.6s-1-2-2-2.37-2.37-.58-3-1.57a2.42 2.42 0 0 1 0-2.25 4.64 4.64 0 0 1 1.51-1.78c.89-.71 2-1.55 1.84-2.68s-1.64-1.53-2.8-1.7-2.57-.7-2.64-1.86a1.8 1.8 0 0 1 1-1.56 4.9 4.9 0 0 1 1.72-.46h.17l8.82-1.08a35 35 0 0 0 3.68-.62 9 9 0 0 1 1.46-.19 12.6 12.6 0 0 0 2.28-.2 4.85 4.85 0 0 0 3.08-2c.27-.46.61-1.06 1.14-1s.62.71.56 1.19c-.16 1.19-1 2.82.28 3.61s3.76.23 5-.5c.32-.18.63-.38 1-.6a3.77 3.77 0 0 1 2.78-.9 8.5 8.5 0 0 1 1.81.95 7.64 7.64 0 0 0 4.69.3l15.64-2.18c.34-.46.58-.32 1.14-.21a1.53 1.53 0 0 1 1.19 1.08c.16.56 0 1.14.13 1.72a3.4 3.4 0 0 0 .94 1.51c2.29 2.59 4.49 6.78 8.34 4.52l12.82-7.53c0-.53.49-.41 1-.27a1.79 1.79 0 0 1 1.06 1.09 15 15 0 0 0 .56 1.45c.94 1.83 3.41 2.06 5.19 3.08s2.92 2.93 4.19 4.6 3 3.25 5.12 3.2a2.8 2.8 0 0 1 1.58.17 2 2 0 0 1 .62 1.61c.39 5.78.11 11.72.2 17.52 0 .81.11 1.75.82 2.12 1.16.62 2.74-1 3.8-.2a1.54 1.54 0 0 1 .32 1.77 11 11 0 0 1-1 1.65c-1.71 2.94.27 6.38 2.17 8.7a5.23 5.23 0 0 0 3.48 2c.85.06 2 0 2.25.8s-.39 1.3-.78 1.89a3.38 3.38 0 0 0-.14 3.33 3.33 3.33 0 0 0 2.85 1.73c1.33 0 2.66-.77 4-.41s2 1.74 2.41 3 .67 2.74 1.64 3.69c1.51 1.48 4.21 1.3 5.53 2.95.94 1.2.76 2.82.84 4.25.12 1.84.24 3.68.35 5.54a3.17 3.17 0 0 0 .7 2.15 3 3 0 0 0 2.43.51 21.2 21.2 0 0 0 4.91-1.1 5.16 5.16 0 0 0 2.12-1.21 2.12 2.12 0 0 0 .49-2.26c-.34-.71-1.21-1.19-1.22-2s.91-1.31 1.47-1.93a5 5 0 0 0 .94-2.54 26.5 26.5 0 0 1 .78-4.41c.28-1.63.55-3.25.85-4.88a33.5 33.5 0 0 1 .9-4.32c.41-1.28.83-2.72.18-4a9 9 0 0 0-1.47-1.83 16 16 0 0 1-2.26-3.82 12.2 12.2 0 0 1-1.41-3l-1.61-3.42-3.11-6.64c-1-2.21-2.07-4.41-3.11-6.62-.76-1.61-2.65-4.14-2-6a3.5 3.5 0 0 0 .4-1.72 2 2 0 0 0-.85-1.18c-.4-.29-.85-.51-1.24-.8-1.19-.87-1.27-1.58-1.33-2.93a13 13 0 0 0-1.42-4.59q-2.6-5.83-4.75-11.81-1.08-3-2-6a18.5 18.5 0 0 1-1.13-3.53 4.9 4.9 0 0 1 .05-1.36q1.27-7.5 3-14.91.42-1.78.87-3.57c.21-.9.72-1.67.86-2.55.2-1.24-.51-2.88 0-4.08a2 2 0 0 1 .43-.65 4.93 4.93 0 0 1 2.51-.78c2.21-.45 3.91-2.14 5.49-3.74 2.79-2.32 5.22-5.3 7.76-7.9s5.29-5.38 7.94-8.07l7.92-8.08c.28-.29.58-.57.84-.86 1-1.06 2.09-2.13 3.12-3.18s1.61-2.18 3-2.72a6.3 6.3 0 0 0 2.46-1.21c1.07-1.07 1-2.82.61-4.27s-1-3-.59-4.43c.54-2.24 3-3.42 5.32-3.73s4.69-.11 6.83-1c1.25-.51 2.49-1.75 2.12-3.06a7.1 7.1 0 0 0-.9-1.58c-.82-1.52-.24-3.42.65-4.91s2.11-2.8 2.65-4.44a11.8 11.8 0 0 0 .34-4.07c-.08-2.6-.14-5.2-.22-7.8-.06-1.81-.35-3.7-.23-5.53a9 9 0 0 1 .22-1.65 3.07 3.07 0 0 0-.39-2.84c-.74-.74-2-.62-3-.35-1.2.31-2.63.68-3.59-.11s-.74-2.68-1.39-4-2.48-1.95-3.33-3.28a5.1 5.1 0 0 1-.14-4.26 21.6 21.6 0 0 0 1.12-3.71 3 3 0 0 0 0-.53 26 26 0 0 1-.06-3.18 2.33 2.33 0 0 1 1.5-1.82 1.3 1.3 0 0 1 .68 0c1.66.47 1.21 3.41 2.78 4.12s3-1.55 4.59-.8c1.44.66 1.49 2.75 3.28 3.08 2 .35 4.23-1.83 4.85-3.55a10.3 10.3 0 0 0 .48-3.12c0-.75.06-1.49.11-2.23.06-1.61.14-3.21.21-4.82s1-3.65-.45-5a12 12 0 0 0-2.36-1.4 10.35 10.35 0 0 1-4.45-4.93 3.8 3.8 0 0 1-.24-3 .5.5 0 0 1 .07-.15 1.76 1.76 0 0 1 2.42-.78 1.4 1.4 0 0 0 .59.38.9.9 0 0 0 .57-.19 8.1 8.1 0 0 0 3.2-5.88 37 37 0 0 0-.18-6.89c-.17-2.65-.9-6 1.25-7.89a38.5 38.5 0 0 1 6.66-4.63c.77-.43 1.56-.84 2.35-1.21.63-.29 1.52-.51 1.89.08.25.37.14.93.48 1.22s.88.08 1.28-.15a45.6 45.6 0 0 0 8-6.18c.61-.59 1.26-1.33 1.1-2.17a1.83 1.83 0 0 0-1.56-1.31 5.2 5.2 0 0 0-2.14.25c-1.92.49-3.83 1-5.75 1.47-.33.09-.73.17-1-.08-.46-.42.12-1.15.65-1.49 2.54-1.59 5.08-3.15 7.65-4.72 1.34-.82 2.67-1.65 4-2.44l.31-.17c.93-.45 1.87-.72 2.78-1.26 1.7-1 3.38-2.07 5-3.17.71-.48 1.42-1 2.12-1.47 1.53-1.08 4.16-2 3.93-4.26-.14-1.5-1.12-2.55-1.94-3.71s-1.5-2.66-3.26-2.79c-.78-.06-1.53.14-2.31.06s-1.59-.58-1.61-1.36a1.77 1.77 0 0 1 .93-1.36 7.4 7.4 0 0 0 1.39-1 3.14 3.14 0 0 0 .25-3.17 23 23 0 0 1-1.11-2.88 1 1 0 0 1-.06-.24c-.3-1.91.77-3.72 1.79-5.36l8.44-13.4c1.37-2.2 2.63-4.62 4.21-6.69a23.5 23.5 0 0 0 2.88-5.34c.21-.5.49-1 1-1.13 1.1-.22 1.63 1.73 2.74 1.67a1.8 1.8 0 0 0 1.1-.7c2-2.1 3.93-4.22 5.9-6.33 1-1 1.93-2.12 2.94-3.15.86-.44 1.86-1.08 1.39-2.28Z" class="cls-2"/><path d="M1860.53 86.34c.44 1.2-.55 1.84-1.28 2.6-1 1-2 2.1-2.94 3.15-2 2.11-3.93 4.23-5.9 6.33a1.8 1.8 0 0 1-1.1.7c-1.11.06-1.64-1.89-2.74-1.67-.51.09-.79.63-1 1.13a23.5 23.5 0 0 1-2.88 5.34c-1.58 2.07-2.84 4.49-4.21 6.69L1830 124c-1 1.64-2.09 3.45-1.79 5.36a1 1 0 0 0 .06.24c0-.07-.08-.14-.14-.21-2.14-3.83-5.17-7.14-6.84-11.18-.41-1-.73-2-1.06-3-.66-2.09-1.33-4.18-2-6.25a100 100 0 0 0-5.72-15.07l-.17-.21a4 4 0 0 1 .83-.54 6 6 0 0 0 1.33-.65 2.9 2.9 0 0 0 .73-2.46c-.45-7.92.36-16.08.62-24a3.47 3.47 0 0 1 .42-1.84c.41-.61 1.19-.87 1.68-1.43a3.46 3.46 0 0 0 .65-2.72 16.5 16.5 0 0 1-.27-2.88c.18-2.2 2-2.41 3.77-2.23a7.65 7.65 0 0 0 3.47-.06c1.41-.54 2.43-2.14 3.93-2.11s2.62 1.78 4.15 2c.71.07 1.42-.19 2.15-.19 1.58 0 1.84 1.73 2.32 2.91.67 1.63 1.33 3.25 2 4.89s1.33 3.27 2 4.89c.56 1.38 1 3.53 1.92 4.68a12.1 12.1 0 0 0 2.37 4.14 4.73 4.73 0 0 0 3.59 1.42c1.3 0 2.72-.53 4-.09 1.61.52 2.22 2.41 2.94 3.93a12.3 12.3 0 0 0 2.23 3.26 5.7 5.7 0 0 1 1.36 1.74Z" class="cls-2"/><path d="M1836 145.8c.23 2.29-2.4 3.18-3.93 4.26-.7.49-1.41 1-2.12 1.47-1.58-1.7-3.13-3.42-4.71-5.14a3 3 0 0 0-.88-.74c-.36-.16-.42-.59-.68-.31l-4.69 1-20.59 4.47h-.06c-.35-4.13-.73-8.28-1.1-12.41h.51c3.18-1 6.35-1.92 9.57-2.71a61.4 61.4 0 0 1 8.84-1.51 6.9 6.9 0 0 0 3.26-.78 14 14 0 0 0 1.84-1.7c1.83-1.64 4.45-2 6.89-2.24h.05c.06.07.09.14.14.21a23 23 0 0 0 1.11 2.88 3.14 3.14 0 0 1-.25 3.17 7.4 7.4 0 0 1-1.39 1 1.77 1.77 0 0 0-.93 1.36c0 .78.85 1.29 1.61 1.36s1.53-.12 2.31-.06c1.76.13 2.37 1.52 3.26 2.79s1.77 2.13 1.94 3.63Z" class="cls-2"/><path d="M1825.21 146.39c1.58 1.72 3.13 3.44 4.71 5.14-1.64 1.1-3.32 2.15-5 3.17-.91.54-1.85.81-2.78 1.26l-3.08-9.21-.08-.39 4.69-1c.26-.28.32.15.68.31a3 3 0 0 1 .86.72ZM1828.17 129.4h-.05c-2.44.26-5.06.6-6.89 2.24a14 14 0 0 1-1.84 1.7 6.9 6.9 0 0 1-3.26.78 61.4 61.4 0 0 0-8.84 1.51v-.2q-1.79-11.91-2.52-24c0-.49.76-.34 1.24-.41a14 14 0 0 0 1.45-.17c.47-.13.92-.58.81-1.06 0-.23-.24-.43-.31-.66-.19-.53.18-1.09.46-1.57a9.57 9.57 0 0 0 .92-5.27 32.6 32.6 0 0 1-.19-5.41l-.08-.18a4 4 0 0 0 1.61-1.19 18 18 0 0 1 1.74-1.88l.17.21a100 100 0 0 1 5.72 15.07c.68 2.07 1.35 4.16 2 6.25.33 1 .65 2 1.06 3 1.63 4.1 4.63 7.41 6.8 11.24Z" class="cls-2"/><path d="m1819 146.75 3.08 9.21-.31.17c-1.37.79-2.7 1.62-4 2.44-2.57 1.57-5.11 3.13-7.65 4.72-.53.34-1.11 1.07-.65 1.49.25.25.65.17 1 .08 1.92-.48 3.83-1 5.75-1.47a5.2 5.2 0 0 1 2.14-.25 1.83 1.83 0 0 1 1.56 1.31c.16.84-.49 1.58-1.1 2.17a45.6 45.6 0 0 1-8 6.18c-.4.23-.94.46-1.28.15s-.23-.85-.48-1.22c-.37-.59-1.26-.37-1.89-.08-.79.37-1.58.78-2.35 1.21l-.07-.13c-.71-1.08-2.12-1.42-3.39-1.61a13 13 0 0 1-1.34-.23l.06-.28c-.59-6.59-1.16-13.18-1.75-19.78h.06l20.59-4.47ZM1809.29 102.36a9.57 9.57 0 0 1-.92 5.27c-.28.48-.65 1-.46 1.57.07.23.26.43.31.66.11.48-.34.93-.81 1.06a14 14 0 0 1-1.45.17c-.48.07-1.27-.08-1.24.41q.72 12 2.52 24v.2c-3.22.79-6.39 1.75-9.57 2.71h-.51a3 3 0 0 0 0-.42c-.77-.62-1.44-1.25-2.21-1.87-.54-.45-.27-4.37-.25-5.12 0-1.27.45-2.51-.59-3.52-.71-.69-1.68-1.16-2.18-2a4.9 4.9 0 0 1-.48-1.7q-1.56-10-3.08-19.92l-.08-.2 9.47-3.19c3.29-1.12 6.63-2.57 10-3.36.49-.12.9-.22 1.25-.34l.08.18a32.6 32.6 0 0 0 .2 5.41Z" class="cls-2"/><path d="M1786.55 166.4a.2.2 0 0 0 0-.07 11.07 11.07 0 0 0 5.9 1.42c1.33-.14 2.83-.59 3.9.23.62.47.9 1.26 1.42 1.81a4.1 4.1 0 0 0 2.22 1.1 13 13 0 0 0 1.34.23c1.27.19 2.68.53 3.39 1.61l.07.13a38.5 38.5 0 0 0-6.66 4.63c-2.15 1.9-1.42 5.24-1.25 7.89a37 37 0 0 1 .18 6.89 8.1 8.1 0 0 1-3.2 5.88.9.9 0 0 1-.57.19 1.4 1.4 0 0 1-.59-.38 1.76 1.76 0 0 0-2.42.78l-.14-.06c-1.78-1.69-3.6-3.81-5.4-5.51l-.18.32-.07-.05c.13-2 .25-4 .38-5.92a4.09 4.09 0 0 0 3.51-2.59 5.76 5.76 0 0 0-.5-4.44 10.9 10.9 0 0 0-3-3.41c.43-3.56 1.25-7.15 1.67-10.68Z" class="cls-2"/><path d="M1798.31 150.83c.59 6.6 1.16 13.19 1.75 19.78l-.06.28a4.1 4.1 0 0 1-2.22-1.1c-.52-.55-.8-1.34-1.42-1.81-1.07-.82-2.57-.37-3.9-.23a11.07 11.07 0 0 1-5.9-1.42.2.2 0 0 1 0 .07c-1.87-2.18-3.73-4.38-5.61-6.56-.78-.93-1.67-2.43-2.7-3.06s-2.6-.3-3.72 0c-4.18 1-8.34 2-12.52 3l-24.89 6-7.83 1.89c-1.13.26-5.68 2.18-6.24.43a5.8 5.8 0 0 1 0-1.44 3.58 3.58 0 0 0-1.08-2.18 5.7 5.7 0 0 1-1.36-2.06c2.6-1.87 5.16-3.77 7.72-5.69 1-.79 2.18-1.74 2.29-3a4.7 4.7 0 0 0-1.42-3.12c-6.88-8.47 12.46-7.42 16.17-7.69 1.42-.11 3-.27 4-1.26.68-.65 1-1.59 1.75-2.21 1.37-1.21 3.48-.79 5.31-1.07a6.61 6.61 0 0 0 5.38-5.85c.1-1.1-.46-2.52-1.56-2.48a4.8 4.8 0 0 0-1.27.47 2.76 2.76 0 0 1-3.27-1.86c-.92-2.88 2.68-6.31 4-8.74a32.5 32.5 0 0 1 6.28-8.41c2.79-2.41 8.56-3.13 12.07-4.3l10.28-3.45.08.2q1.53 10 3.08 19.92a4.9 4.9 0 0 0 .48 1.7c.5.85 1.47 1.32 2.18 2 1 1 .59 2.25.59 3.52 0 .75-.29 4.67.25 5.12.77.62 1.44 1.25 2.21 1.87a3 3 0 0 1 0 .42c.37 4.04.79 8.19 1.1 12.32ZM1797.27 208.19c1.44 1.32.53 3.29.45 5s-.15 3.21-.21 4.82c-1.18-.79-2.71-.79-4.13-.89s-3-.35-3.87-1.47a7.6 7.6 0 0 1-1-2.6 24 24 0 0 0-1.16-3.15q-2.53-6.1-5.09-12.22c.79-1.39 1.56-2.77 2.34-4.16l.18-.32c1.8 1.7 3.62 3.82 5.4 5.51l.14.06a.5.5 0 0 0-.07.15 3.8 3.8 0 0 0 .24 3 10.35 10.35 0 0 0 4.45 4.93 12 12 0 0 1 2.33 1.34Z" class="cls-2"/><path d="M1782.23 197.65q2.55 6.1 5.09 12.22a24 24 0 0 1 1.16 3.15 7.6 7.6 0 0 0 1 2.6c.88 1.12 2.44 1.4 3.87 1.47s3 .1 4.13.89c0 .74-.08 1.48-.11 2.23a10.3 10.3 0 0 1-.48 3.12c-.62 1.72-2.87 3.9-4.85 3.55-1.79-.33-1.84-2.42-3.28-3.08-1.61-.75-3 1.56-4.59.8s-1.12-3.65-2.78-4.12a1.3 1.3 0 0 0-.68 0v-.21M1713.17 259.43q1.69-2.44 3.43-4.82 4.82-.48 9.6-1c21.14-2.4 42.11-5.68 63.32-7.43h.23c-.12 1.83.17 3.72.23 5.53.08 2.6.14 5.2.22 7.8a11.8 11.8 0 0 1-.34 4.07c-.54 1.64-1.75 3-2.65 4.44s-1.47 3.39-.65 4.91a7.1 7.1 0 0 1 .9 1.58c.37 1.31-.87 2.55-2.12 3.06-2.14.88-4.53.67-6.83 1s-4.78 1.49-5.32 3.73c-.37 1.46.22 3 .59 4.43s.46 3.2-.61 4.27a6.3 6.3 0 0 1-2.46 1.21c-1.44.54-2 1.69-3 2.72s-2.07 2.12-3.12 3.18l-15.14-11.89a5.35 5.35 0 0 0-2.79-1.43c-.92-.07-1.82.31-2.75.27a6.3 6.3 0 0 1-2.85-1.16 5.1 5.1 0 0 0-2.89-1c-2.66.17-3.93 6.44-7.4 3.84-1-.74-1.22-2.18-2.14-3a5.2 5.2 0 0 0-2.8-1l-8.2-1.23a14.2 14.2 0 0 0-5.31-.16c-2.79.62-4.12 2.72-6.35 4.16-2 1.32-4 1-6.27 1.1a4.88 4.88 0 0 0-4 2.56 5 5 0 0 0-.22.46c-7.24.22-14.57.43-22 .67 7.23-4.94 17.31-11.57 24.46-16.46a14.5 14.5 0 0 1 5-2.52 6.6 6.6 0 0 0 2.06-.57 4.6 4.6 0 0 0 1.27-1.32c2.32-3.32 4.59-6.69 6.9-10Z" class="cls-2"/><path d="M1789.58 241.67a3.07 3.07 0 0 1 .39 2.84 9 9 0 0 0-.22 1.65h-.23c-21.21 1.75-42.18 5-63.32 7.43q-4.79.55-9.6 1-1.74 2.37-3.43 4.82l-25.33.85 17-19.24a13.1 13.1 0 0 0 3.58 3.24 3.44 3.44 0 0 0 3.94 0c.68-.59 1-1.5 1.64-2.14 1.77-1.73 4.8-.62 7.12-1.45a8.7 8.7 0 0 0 3-2.2q8.4-8.34 16.84-16.67c5.07-5 10.6-9.77 15-15.46 3.31 2.5 6.9 5.71 9.93 8.54a16.7 16.7 0 0 0 .79 5.36c.19.55.48 1.19 1.06 1.31s1.31-.65 2-.79c1.08-.21 1.86 1 2.55 1.78 1.69 2 4.4 2.82 6.94 3.5a21.6 21.6 0 0 1-1.12 3.71 5.1 5.1 0 0 0 .14 4.26c.85 1.33 2.62 1.89 3.33 3.28s.31 3 1.39 4 2.39.42 3.59.11c1.06-.35 2.28-.47 3.02.27ZM1748.36 200q-7.8 1.32-15.61 2.52c-4.18.67-8.38 1.29-12.57 1.89-.59-.67-.76-1.13-1.29-1.77a2 2 0 0 0-.15-.2c-.22-2.57-.37-5.26-.6-7.84-.19-2.23-.41-4.45-.61-6.68-.66-7.33-1.35-14.67-2-22 1.69-1.18 3.37-2.39 5-3.6a5.7 5.7 0 0 0 1.36 2.06 3.58 3.58 0 0 1 1.08 2.18 5.8 5.8 0 0 0 0 1.44c.56 1.75 5.11-.17 6.24-.43l7.83-1.89 24.89-6c4.18-1 8.34-2 12.52-3 1.12-.28 2.65-.65 3.72 0s1.92 2.13 2.7 3.06c1.88 2.18 3.74 4.38 5.61 6.56-.42 3.53-1.24 7.12-1.66 10.65a10.9 10.9 0 0 1 3 3.41 5.76 5.76 0 0 1 .5 4.44 4.09 4.09 0 0 1-3.51 2.59c-.13 2-.25 4-.38 5.92h-.09q-17.9 3.69-35.98 6.69Z" class="cls-2"/><path d="M1748.36 200q18.09-3 36.05-6.63h.09l.07.05c-.78 1.39-1.55 2.77-2.34 4.16M1780.74 220.27v.21a2.33 2.33 0 0 0-1.5 1.82 26 26 0 0 0 .06 3.18 3 3 0 0 1 0 .53c-2.54-.68-5.25-1.47-6.94-3.5-.69-.83-1.47-2-2.55-1.78-.73.14-1.32.93-2 .79s-.87-.76-1.06-1.31a16.7 16.7 0 0 1-.79-5.36c-3-2.83-6.62-6-9.93-8.54l-2.15-2.65M1695.43 289.53a5 5 0 0 1 .22-.46 4.88 4.88 0 0 1 4-2.56c2.28-.14 4.23.22 6.27-1.1 2.23-1.44 3.56-3.54 6.35-4.16a14.2 14.2 0 0 1 5.31.16l8.2 1.23a5.2 5.2 0 0 1 2.8 1c.92.85 1.15 2.29 2.14 3 3.47 2.6 4.74-3.67 7.4-3.84a5.1 5.1 0 0 1 2.89 1 6.3 6.3 0 0 0 2.85 1.16c.93 0 1.83-.34 2.75-.27a5.35 5.35 0 0 1 2.79 1.43l15.14 11.89c-.26.29-.56.57-.84.86l-7.92 8.08c-2.65 2.69-5.3 5.37-7.94 8.07s-5 5.58-7.76 7.9c-1.58 1.6-3.28 3.29-5.49 3.73a5 5 0 0 0-2.51.79 2 2 0 0 0-.43.65h-.05q-10.72-9-20.72-18.87-5.07-5-9.93-10.14c-2.36-2.46-7.12-5.68-5.52-9.55Z" class="cls-2"/><path d="m1705 240.87-3.57-4c-.26-2.49-.6-4.87-.87-7.35.1-.14.17-.3.27-.43a301 301 0 0 1 18.07-26.43c.53.64.7 1.1 1.29 1.77 4.19-.6 8.39-1.22 12.57-1.89l.06.37c.34 2.37.62 4.75.82 7.14.09 1.08-.4 5.07 1.17 5.12a1.9 1.9 0 0 0 1.6-1.07c.48-.88.49-2 1.25-2.63a10.1 10.1 0 0 0 2.09-2.38 11 11 0 0 1 2-2.6c1.59-1.4 3.08-.44 5-.54a12.5 12.5 0 0 0 3.62-1c1.16-.43 2.32-.88 3.49-1.33l2.15 2.65c-4.35 5.69-9.88 10.43-15 15.46q-8.43 8.34-16.84 16.67a8.7 8.7 0 0 1-3 2.2c-2.32.83-5.35-.28-7.12 1.45-.63.64-1 1.55-1.64 2.14a3.44 3.44 0 0 1-3.94 0 13.1 13.1 0 0 1-3.58-3.24ZM1725.49 354.63h1.36a18.5 18.5 0 0 0 1.13 3.53q.94 3 2 6 2.16 6 4.75 11.81a13 13 0 0 1 1.42 4.59c.06 1.35.14 2.06 1.33 2.93.39.29.84.51 1.24.8a2 2 0 0 1 .85 1.18 3.5 3.5 0 0 1-.4 1.72c-.7 1.82 1.19 4.35 2 6 1 2.21 2.08 4.41 3.11 6.62s2.08 4.43 3.11 6.64l1.61 3.42a12.2 12.2 0 0 0 1.41 3 16 16 0 0 0 2.26 3.82 9 9 0 0 1 1.47 1.83c.65 1.28.23 2.72-.18 4a33.5 33.5 0 0 0-.9 4.32c-.3 1.63-.57 3.25-.85 4.88a26.5 26.5 0 0 0-.78 4.41 5 5 0 0 1-.94 2.54c-.56.62-1.49 1.1-1.47 1.93s.88 1.27 1.22 2a2.12 2.12 0 0 1-.49 2.26 5.16 5.16 0 0 1-2.12 1.21 21.2 21.2 0 0 1-4.91 1.1 3 3 0 0 1-2.43-.51 3.17 3.17 0 0 1-.7-2.15c-.11-1.86-.23-3.7-.35-5.54-.08-1.43.1-3-.84-4.25-1.32-1.65-4-1.47-5.53-2.95-1-.95-1.23-2.38-1.64-3.69s-1.11-2.69-2.41-3-2.62.43-4 .41a3.33 3.33 0 0 1-2.85-1.73 3.38 3.38 0 0 1 .14-3.33c.39-.59 1-1.22.78-1.89s-1.4-.74-2.25-.8a5.23 5.23 0 0 1-3.48-2c-1.9-2.32-3.88-5.76-2.17-8.7a11 11 0 0 0 1-1.65 1.54 1.54 0 0 0-.32-1.77c-1.06-.79-2.64.82-3.8.2-.71-.37-.8-1.31-.82-2.12-.09-5.8.19-11.74-.2-17.52a2 2 0 0 0-.62-1.61 2.8 2.8 0 0 0-1.58-.17c-2.09.05-3.83-1.55-5.12-3.2s-2.38-3.56-4.19-4.6-4.25-1.25-5.19-3.08a15 15 0 0 1-.56-1.45 1.79 1.79 0 0 0-1.06-1.09c-.52-.14-1-.26-1 .27l-12.82 7.53c-3.85 2.26-6-1.93-8.34-4.52a3.4 3.4 0 0 1-.94-1.51c-.13-.58 0-1.16-.13-1.72a1.53 1.53 0 0 0-1.19-1.08c-.56-.11-.8-.25-1.14.21l-15.64 2.18a7.64 7.64 0 0 1-4.69-.3 8.5 8.5 0 0 0-1.81-.95 3.77 3.77 0 0 0-2.78.9c-.43-3.35-1-6.94-1.41-10.28.67-.79.84-1.49 1.5-2.28l35.36-2.87h.13c0 .91 0 1.84.73 2.18.93.48 3 .23 4.06.31 5.38.37 10.79.65 16.19.82 3.43.11 6.85.17 10.29.2h5.31c1.11 0 2.68-.43 3.62.36a7 7 0 0 0 .74.69c1.26.79 1.69-1.44 2-2.13a3.8 3.8 0 0 1 2.51-2 8.4 8.4 0 0 1 2.41-.36Z" class="cls-2"/><path d="M1673.48 290.2c7.38-.24 14.71-.45 22-.67-1.6 3.87 3.16 7.09 5.52 9.61q4.86 5.16 9.93 10.14 10 9.84 20.72 18.87h.05c-.53 1.2.18 2.84 0 4.08-.14.88-.65 1.65-.86 2.55q-.45 1.79-.87 3.57-1.73 7.41-3 14.91a4.9 4.9 0 0 0-.05 1.36h-1.36a8.4 8.4 0 0 0-2.4.28 3.8 3.8 0 0 0-2.51 2c-.31.69-.74 2.92-2 2.13a7 7 0 0 1-.74-.69c-.94-.79-2.51-.38-3.62-.36h-5.31c-3.44 0-6.86-.09-10.29-.2-5.4-.17-10.81-.45-16.19-.82-1.07-.08-3.13.17-4.06-.31-.69-.34-.73-1.27-.73-2.18v-.9c-.12-2.6-.12-5.22-.25-7.83-.21-4.74-.45-9.46-.66-14.2-.1-1.7-.3-3.62-1.68-4.62-.74-.53-1.76-.73-2.27-1.49-1-1.47.73-3.61-.12-5.15-.36-.65-1.1-1-1.66-1.51-1.24-1.11-1.6-2.89-1.87-4.55q-2-11.71-4-23.46v-.28ZM1718.74 202.48a2 2 0 0 1 .15.2 301 301 0 0 0-18.07 26.43l-.11-.08a14.5 14.5 0 0 1-7.46-3.31 5.6 5.6 0 0 0-2.17-1.44c-1.33-.34-2.63.49-3.79 1.22s-2.63 1.42-3.86.79c-1-.54-1.47-1.84-2.43-2.54a5.7 5.7 0 0 0-3.15-.71 30.6 30.6 0 0 1-9.77-2l-.34-.06c.22-1 .68-1.79.88-2.86.33-1.67-.31-4-.59-5.62-.59-3.57-1.47-7.12-1.87-10.73a29.4 29.4 0 0 1-.19-4.78c.07-1.5-.23-1.53-1-2.66-1.32-1.89-.59-4.69-.62-6.84 0-3-.09-6-.14-9a2.7 2.7 0 0 1 1.19.09 11 11 0 0 1 1.33.7 7 7 0 0 0 3.19.42c6.41-.16 12.8-.33 19.21-.48l.11-.24c.6.55.6 1.51 1.08 2.17a2.34 2.34 0 0 0 2.76.53c1.3-.56 2-1.81 3-2.66a53 53 0 0 1 4.89-3.15q4.71-3.06 9.35-6.23c1.73-1.18 3.45-2.39 5.17-3.59.66 7.33 1.35 14.67 2 22 .2 2.23.42 4.45.61 6.68.27 2.49.42 5.18.64 7.75ZM1615.13 267c4.46.14 9 .33 13.36.42.24-1.53.66-3.6.91-5.15l58.44-2 25.33-.85c-2.31 3.31-4.58 6.68-7 9.9a4.6 4.6 0 0 1-1.27 1.32 6.6 6.6 0 0 1-2.06.57 14.5 14.5 0 0 0-5 2.52c-7.15 4.89-17.23 11.52-24.46 16.46l-8.34.26-37.24 1.19c-8.85.28-17.66.56-26.33.81 1.33-2.94 2.68-5.87 4-8.79.68-1.52 1.36-3 2.06-4.54a10.5 10.5 0 0 1 .93-2c.32-.44.91-.51 1.19-1a2.1 2.1 0 0 0 .18-.59 4.2 4.2 0 0 0 .1-.85c.09-2.59 0-5.25.15-7.8 1.74-.02 3.39.02 5.05.12Z" class="cls-2"/><path d="m1701.42 236.89 3.57 4-.12.12-17 19.24-58.44 2c-.25 1.55-.67 3.62-.91 5.15-4.35-.09-8.9-.28-13.36-.42.09-2 .09-4.11-.81-5.78l.19-.13c2.15-2.15 4.67-4.46 7.71-4.33 1.19 0 2.6.4 3.39-.48s.11-2.62.46-3.92c.31-1.1 1.38-1.79 2-2.75a3 3 0 0 0 .38-.89 3.68 3.68 0 0 0 2-1.73 4 4 0 0 1 3.57-2.35c1.92-.31 3.87-.08 5.81-.25a30.3 30.3 0 0 0 6.5-1.62 3.47 3.47 0 0 0 2.23-1.55 6.1 6.1 0 0 0 .23-1.83 1.46 1.46 0 0 1 1-1.39c.73-.13 1.28.65 1.47 1.36a3.8 3.8 0 0 0 .82 2 2.22 2.22 0 0 0 2.54-.13c1.53-1 2.41-2.63 3.36-4.16a32.8 32.8 0 0 1 7.38-8.34c1.24-1 2.65-2.06 2.78-3.62a9.3 9.3 0 0 0-.38-2.51 4.9 4.9 0 0 1 0-1.63l.34.06a30.6 30.6 0 0 0 9.77 2 5.7 5.7 0 0 1 3.15.71c1 .7 1.38 2 2.43 2.54 1.23.63 2.7 0 3.86-.79s2.46-1.56 3.79-1.22a5.6 5.6 0 0 1 2.17 1.44 14.5 14.5 0 0 0 7.46 3.31l.11.08c-.1.13-.17.29-.27.43.22 2.49.56 4.89.82 7.38ZM1664.21 178.4a6.85 6.85 0 0 0-2.85 1.33c-8.06-.34-16.14-.66-24.22-1l-.14-.15c2.07-2 4.15-3.92 6.19-5.91v-12.51a10.6 10.6 0 0 0-.27-2.91c-.6-2.18-2.49-3.88-4.22-5.34-.25-5.31-.48-10.62-.72-15.91-.06-1.19-.07-2.89 1-3.73.79-.65 2-.91 2.94-1.58.65-.49 7.61-5.83 7.75-5.83.59.72 1.89.32 2.33-.52.55-1.08-.16-1.91 0-2.9s1-1.48 1.67-2.19c1.38-1.53 1.07-3.9.67-5.93l.06-.52a2.26 2.26 0 0 0 1-.05 13 13 0 0 1 2.36-.63c2.32-.1 3.74 2.77 6 3.26 1.75.39 3.81-.68 5.29.36.56.39.9 1 1.43 1.45a27 27 0 0 0 2.38 1.35 4.54 4.54 0 0 1 1.7 3.17c.26 2.22 0 4.6.16 6.86.15 2.59.31 5.15.46 7.72a7.1 7.1 0 0 1-.43 3.59c-.75 1.46-2.42 2.17-3.69 3.24s-2.13 3.11-.94 4.26a2.48 2.48 0 0 0 2.74.26 7.6 7.6 0 0 0 2.21-1.9l3.89-4.42c1.1-1.23 2.57-2.58 4.15-2.12s1.78 2.25 2.19 3.64c.53 1.69 1.23 3.38 1.78 5.08 1.35 4 2.68 8.06 4 12.09a6 6 0 0 1 .45 2.92 2 2 0 0 1-2 1.77c-.79-.11-1.47-.84-2.26-.7s-1.17 1.19-1.33 2.06c-.4 2.29-.8 4.58-1.2 6.89a8 8 0 0 0-.17 3.08 2.89 2.89 0 0 0 1.85 2.3c1 .3 2.17-.09 2.93.57l-.11.24c-6.41.15-12.8.32-19.21.48a7 7 0 0 1-3.19-.42 11 11 0 0 0-1.33-.7 2.7 2.7 0 0 0-1.3-.1ZM1677.63 353.55v.9h-.13l-35.36 2.87c-.66.79-.83 1.49-1.5 2.28.44 3.34 1 6.93 1.41 10.28-.33.22-.64.42-1 .6-1.27.73-3.67 1.32-5 .5s-.44-2.42-.28-3.61c.06-.48-.08-1.1-.56-1.19s-.87.51-1.14 1a4.85 4.85 0 0 1-3.08 2 12.6 12.6 0 0 1-2.28.2v-.12q.43-22.17.87-44.35c.12-6.17.24-12.33.32-18.51a20.5 20.5 0 0 0-.54-6.16c-.77-2.61-2.57-5.32-1.47-7.81v-.78l37.24-1.19v.28l4 23.46c.27 1.66.63 3.44 1.87 4.55.56.5 1.3.86 1.66 1.51.85 1.54-.87 3.68.12 5.15.51.76 1.53 1 2.27 1.49 1.38 1 1.58 2.92 1.68 4.62.21 4.74.45 9.46.66 14.2.12 2.61.12 5.28.24 7.83Z" class="cls-2"/><path d="M1668 212.45c.28 1.64.92 4 .59 5.62-.2 1.07-.66 1.9-.88 2.86a4.9 4.9 0 0 0 0 1.63 9.3 9.3 0 0 1 .38 2.51c-.13 1.56-1.54 2.64-2.78 3.62a32.8 32.8 0 0 0-7.38 8.34c-1 1.53-1.83 3.2-3.36 4.16a2.22 2.22 0 0 1-2.54.13 3.8 3.8 0 0 1-.82-2c-.19-.71-.74-1.49-1.47-1.36a1.46 1.46 0 0 0-1 1.39 6.1 6.1 0 0 1-.23 1.83 3.47 3.47 0 0 1-2.23 1.55 30.3 30.3 0 0 1-6.5 1.62c-1.94.17-3.89-.06-5.81.25a4 4 0 0 0-3.57 2.35 3.68 3.68 0 0 1-2 1.73c.47-1.42.14-3.06 0-4.61a6.16 6.16 0 0 1 .61-3.76c.62-1 1.56-1.64 2.06-2.75 1.14-2.54.31-6.06.35-8.78a38 38 0 0 1 1.18-9.24 8.16 8.16 0 0 0 .51-4.24 18 18 0 0 0-1.11-2.3 12.3 12.3 0 0 1-.65-4.86c0-8.31 0-16.61-.12-24.92l.11-.28a1.5 1.5 0 0 0 .61.1c1.2-.13 2.7-2.23 3.56-3.05.48-.47 1-.92 1.46-1.38l.14.15c8.08.35 16.16.67 24.22 1a6.85 6.85 0 0 1 2.85-1.33c0 3 .09 6 .14 9 0 2.15-.7 4.95.62 6.84.77 1.13 1.07 1.16 1 2.66a29.4 29.4 0 0 0 .19 4.78c.43 3.62 1.31 7.17 1.87 10.74ZM1664.88 107.91a2.25 2.25 0 0 1-1.85 2.62c-1.23.26-2.21-.3-3.37-.56a17.4 17.4 0 0 0-3.39-.28 4.8 4.8 0 0 0-2.23.33l-.09-.22c-.65-1.58-2.65-2.2-4.34-1.93a21.7 21.7 0 0 0-4.76 1.82c-2.79 1.15-5.85-.29-8.5 1.12a12.2 12.2 0 0 0-3.3 2.92 13.4 13.4 0 0 1-3.23 3c-1.4.8-3 1.08-4.48 1.76s-3.17 1.49-3 3.1c.2 2.52.39 5.21-.49 7.55-2-2.71-4-5.59-4.48-8.92-.23-1.58-.26-3.53-1.68-4.28s-3.38.07-4.31-1.13c-.54-.72-.35-1.78-.82-2.56a2.29 2.29 0 0 0-2-1c-1.3 0-2.29.78-3.62.75a13 13 0 0 1-7.08-2.68 38.5 38.5 0 0 1-5.58-5.25l-.16-.23a19 19 0 0 0 2-1.74 59 59 0 0 1 10.36-8c3.94-2.38 7.84-5.14 12-7.2 1.09-.65 2.6-1.25 3.45-.31a1.87 1.87 0 0 1 .11 2.08 5.4 5.4 0 0 1-1.51 1.59c-2.17 1.75-4.32 3.5-6.49 5.23a3.84 3.84 0 0 0-1.64 2.17c-.36 2.4 10.76 4.32 12.78 4.72a21 21 0 0 1 4.45 1c1.62.69 1.73 1.61 2.67 2.87a.83.83 0 0 0 1.12.28 1.24 1.24 0 0 0 .31-.75c.34-2.79.34-4.25 3.19-5.33 3.85-1.47 7.7-2.92 11.56-4.4a3.3 3.3 0 0 1 2.29-.26c1.19.5.53 3.44.59 4.51 0 .55.14 1.19.63 1.44.73.35 1.43-.5 2.08-1a3.74 3.74 0 0 1 3.85-.16 11 11 0 0 1 3.06 2.64 10.8 10.8 0 0 0 3.1 2.6c.97.62 2.41.93 2.8 2.09Z" class="cls-2"/><path d="M1628.42 248.68a3 3 0 0 1-.38.89c-.59 1-1.66 1.65-2 2.75-.35 1.3.44 2.91-.46 3.92s-2.2.52-3.39.48c-3-.13-5.56 2.18-7.71 4.33l-.19.13a4.7 4.7 0 0 0-.82-1.12c-.72-.71-1.67-1.17-2.33-1.95-2.05-2.34-.76-6.45-2.94-8.68a23 23 0 0 0-2.6-1.78c-1.57-1.19-1-2.82-1.66-4.38-1.13-2.48-5.2-2.85-5.73-5.51-.26-1.33.53-2.6 1.13-3.83s1-2.8.13-3.82a4.26 4.26 0 0 0-1.71-1 30.6 30.6 0 0 1-11.79-8.27c-1.92-2.17-2.09-3-2-5.77.06-1.27.12-2.54.17-3.79.09-1.68.15-3.35.23-5a7.23 7.23 0 0 1 .84-3.68 7.3 7.3 0 0 0 1.07-1.66c.49-1.56-1.71-3.5-.62-4.74l10.86-12.2a4.1 4.1 0 0 0 1.12-1.88c.12-.71-.09-1.16-.82-1.23l-10.33-8.67-.57-.5.19-.21 38.21-1.07a5.8 5.8 0 0 0 .87 2.8c.84 1.38 2.28 2.35 3 3.82.54 1.15.55 2.48 1 3.67a4.23 4.23 0 0 0 2.2 2.21l-.11.28c.12 8.31.12 16.61.12 24.92a12.3 12.3 0 0 0 .6 4.86 18 18 0 0 1 1.07 2.34 8.16 8.16 0 0 1-.51 4.24 38 38 0 0 0-1.18 9.24c0 2.72.79 6.24-.35 8.78-.5 1.11-1.44 1.75-2.06 2.75a6.16 6.16 0 0 0-.61 3.76c.2 1.51.53 3.15.06 4.57Z" class="cls-2"/><path d="M1631.43 122.86c.72.14.71 1.2.42 1.88-1.18 2.77-3.8 4.9-4.26 7.89-.25 1.63.18 3.38-.43 4.91-.38.88-1 1.59-1.49 2.44a9.94 9.94 0 0 0-.74 4.43c-.07 3.85.46 8.28-.31 12-.7 3.41-.23 6.3-.17 9.77 0 1.45-.2 2.82-.13 4.18l-38.21 1.07-.19.21a9 9 0 0 1-1.7-1.79c-1.07-1.61-.87-4-1-5.87-.22-2.26-.42-4.53-.64-6.78v-.17a6.8 6.8 0 0 1 .18-3.08 7.2 7.2 0 0 0 .75-2c.07-1.3-1-1.57-1.86-2.52a89.8 89.8 0 0 0-14-11.65 7.2 7.2 0 0 1-2.71-2.6c-.82-1.77.17-3.21.33-4.94.12-1.39-.13-3-.11-4.4a5.5 5.5 0 0 0-.28-2.29c-1.59-4-1-4.76 3-6.68a4.75 4.75 0 0 0 2.68-2.54c.46-1.44-.1-3 .21-4.54.54-2.74 1.66-5.2 1.32-8a2 2 0 0 0 .13.3c.35.69 1.24.87 2 1 2.12.28 4.4.53 6.28-.48a19 19 0 0 0 2.59-1.93 4.4 4.4 0 0 1 2.94-1.13 2 2 0 0 1 2 2.09c-.06.57-.46 1.08-.45 1.66a1.52 1.52 0 0 0 .87 1.3 2.6 2.6 0 0 0 1.59.18 5.1 5.1 0 0 0 2.06-.91l.16.23a38.5 38.5 0 0 0 5.58 5.25 13 13 0 0 0 7.08 2.68c1.33 0 2.32-.7 3.62-.75a2.29 2.29 0 0 1 2 1c.47.78.28 1.84.82 2.56.93 1.2 3 .41 4.31 1.13s1.45 2.7 1.68 4.28c.48 3.33 2.49 6.21 4.48 8.92a8.3 8.3 0 0 1-.62 1.32c-1.32 2.18-3.78 3.7-4.48 6.14-.21.76-.12 1.77.61 2 1.36.51 2-1.61 2.52-2.42 1-1.48 2.34-2.83 3.48-4.22 2.31-2.84 4.61-5.65 6.92-8.47.3-.33.74-.75 1.17-.66ZM1629.4 300.24a20.5 20.5 0 0 1 .54 6.16c-.08 6.18-.2 12.34-.32 18.51q-.42 22.18-.87 44.35v.12a9 9 0 0 0-1.46.19 35 35 0 0 1-3.68.62l-8.82 1.08h-.17a6 6 0 0 0 0-2 2 2 0 0 0-1.33-1.5 9 9 0 0 1-1.48-.2c-.75-.32-.93-1.27-1-2.07l-.6-6.27c-8.44.39-16.74.7-25.17.42-.57-.87.11-2.34.63-3.22a14.4 14.4 0 0 0 1.61-2.66c.28-.81.27-1.69.47-2.53.43-1.71 1.76-3 2.64-4.58 1.54-2.61 1.71-5.77 1.85-8.79.18-3.84.37-7.69.54-11.55.06-1.05.11-2.09.15-3.14.13-2.46.23-4.9.36-7.35.09-1.89-.57-3.79.23-5.56q4.07-8.91 8.11-17.84c8.67-.25 17.48-.53 26.33-.81v.78c-1.13 2.52.67 5.23 1.44 7.84Z" class="cls-2"/><path d="M1548.73 327.7a2.22 2.22 0 0 1 2.15-1.93 8.5 8.5 0 0 1 3.48 1c3.45 1.36 7.29 1.19 11 1l27.13-1.41h.24c-.17 3.86-.36 7.71-.54 11.55-.14 3-.31 6.18-1.85 8.79-.88 1.55-2.21 2.87-2.64 4.58-.2.84-.19 1.72-.47 2.53a14.4 14.4 0 0 1-1.61 2.66c-.52.88-1.2 2.35-.63 3.22 8.43.28 16.73 0 25.17-.42l.6 6.27c.08.8.26 1.75 1 2.07a9 9 0 0 0 1.48.2 2 2 0 0 1 1.33 1.5 6 6 0 0 1 0 2 4.9 4.9 0 0 0-1.72.46 1.8 1.8 0 0 0-1 1.56c.07 1.16 1.49 1.68 2.64 1.86s2.6.56 2.8 1.7-.95 2-1.84 2.68a4.64 4.64 0 0 0-1.51 1.78 2.42 2.42 0 0 0 0 2.25c.59 1 1.87 1.22 3 1.57s2.27 1.26 2 2.37-1.67 1.49-2.83 1.6l-7.43.65a4.33 4.33 0 0 1-2.6-.31c-.81-.47-1.38-1.49-2.31-1.46s-1.45 1.15-2.15 1.83c-1.33 1.28-3.22.63-4.63-.14-1.95-1.05-3.88-2.14-5.83-3.19-2.45-1.31-4.86-3.06-5.9-5.65-.42-1-.64-2.21-1.5-2.89a2.27 2.27 0 0 0-2.88.2 2.24 2.24 0 0 0-.14 2.86c.51.65 1.45 1.15 1.36 2s-1.3 1.12-2.2 1.07a60 60 0 0 1-9.17-1.15 8.2 8.2 0 0 1-4.69-2.13 9.8 9.8 0 0 0-1.37-1.56c-.54-.44-.65-.62-1.3-.36q-3.45 1.44-7 2.74l-.08-.19c.08-6.31.14-12.64.22-19 0-2 .6-3.93-.92-5.24a5.5 5.5 0 0 1-1.73-2.87 24.6 24.6 0 0 1-.25-3.65 4.3 4.3 0 0 0-1.47-3.24c-.6-.43-1.37-.58-2-1.08-1.19-1.07-.88-2.88-.93-4.3 0-2.2-.23-4.41-.35-6.61l-.42-7.74ZM1610.19 266.83c-.2 2.55-.06 5.21-.15 7.8a4.2 4.2 0 0 1-.1.85h-.09c-1.81-1.08-4.47.2-6.13-1.13a5 5 0 0 1-1.31-2.4c-1.23-3.7-4.72-2.41-7.88-2.41h-52.19V234c0-2.26-.08-4.94-1.42-6.85s-3.56-3-2.31-6c.54-1.28 1.81-2.35 1.72-3.73a3.51 3.51 0 0 0-1.72-2.46c-1.35-.93-2.91-1.53-4.22-2.5a6 6 0 0 1-1.85-2.14 3.6 3.6 0 0 1-.35-2c.14-1 .77-2.06.39-3a2 2 0 0 0-.78-.89l.12-.17h43.61c2.84 2.41 5.66 4.67 8.51 7.07h.17c0 1.25-.11 2.52-.17 3.79-.14 2.77 0 3.6 2 5.77a30.6 30.6 0 0 0 11.79 8.27 4.26 4.26 0 0 1 1.71 1c.89 1 .49 2.62-.13 3.82s-1.39 2.5-1.13 3.83c.53 2.66 4.6 3 5.73 5.51.71 1.56.09 3.19 1.66 4.38a23 23 0 0 1 2.6 1.78c2.18 2.23.89 6.34 2.94 8.68.66.78 1.61 1.24 2.33 1.95a4.7 4.7 0 0 1 .82 1.12c.9 1.67.9 3.82.81 5.78-1.7-.11-3.35-.15-4.98-.18Z" class="cls-2"/><path d="M1545.54 317.44a3.6 3.6 0 0 1-.73-.5 4.9 4.9 0 0 1-1.1-3.26c-1-13.45-1.39-26.84-1.37-40.31v-3.85h52.19c3.16 0 6.65-1.29 7.88 2.41a5 5 0 0 0 1.31 2.4c1.66 1.33 4.32.05 6.13 1.13h.09a2.1 2.1 0 0 1-.18.59c-.28.51-.87.58-1.19 1a10.5 10.5 0 0 0-.93 2c-.7 1.5-1.38 3-2.06 4.54-1.33 2.92-2.68 5.85-4 8.79q-4 8.91-8.11 17.84c-.8 1.77-.14 3.67-.23 5.56-.13 2.45-.23 4.89-.36 7.35 0 1.05-.09 2.09-.15 3.14h-.24l-27.13 1.41c-3.7.2-7.54.37-11-1a8.5 8.5 0 0 0-3.48-1 2.22 2.22 0 0 0-2.15 1.93h-.11c-.09-1.7-.19-3.39-.28-5.09s-.26-3.39-1.52-4.4a10 10 0 0 0-1.28-.68ZM1521.55 167.35c0-1-.11-2.11-.17-3.16a7.3 7.3 0 0 0-.82-3.59 16.5 16.5 0 0 1-1.72-2.26 2.7 2.7 0 0 1-.22-1.3h.3a2 2 0 0 1 .2.2h63.410000000000004c.22 2.25.42 4.52.64 6.78.18 1.86 0 4.26 1 5.87a9 9 0 0 0 1.7 1.79l.57.5 10.33 8.67c.73.07.94.52.82 1.23a4.1 4.1 0 0 1-1.12 1.88l-10.78 12.25c-1.09 1.24 1.11 3.18.62 4.74a7.3 7.3 0 0 1-1.07 1.66 7.23 7.23 0 0 0-.84 3.68c-.08 1.67-.14 3.34-.23 5h-.17c-2.85-2.4-5.67-4.66-8.51-7.07h-43.61l-.12.17a10 10 0 0 0-1.33-.7c-2.48-1.16-2.75-7-3.36-9.53q-1.39-5.76-2.49-11.58a4.2 4.2 0 0 0-.81-2.11c-.38-.45-1-.71-1.36-1.16-1.1-1.19-.54-5.35-.63-6.93s-.12-3.38-.23-5.03Z" class="cls-2"/><path d="M1572 101.85c.34 2.81-.78 5.27-1.32 8-.31 1.5.25 3.1-.21 4.54a4.75 4.75 0 0 1-2.68 2.54c-4 1.92-4.55 2.66-3 6.68a5.5 5.5 0 0 1 .28 2.29c0 1.43.23 3 .11 4.4-.16 1.73-1.15 3.17-.33 4.94a7.2 7.2 0 0 0 2.71 2.6 89.8 89.8 0 0 1 14 11.65c.91.95 1.93 1.22 1.86 2.52a7.2 7.2 0 0 1-.75 2 6.8 6.8 0 0 0-.18 3.08v.17h-63.410000000000004a2 2 0 0 0-.2-.2h-.3c.08-1.5 1.26-2.94 1.78-4.29.81-2.09 0-4.16-.1-6.34-.16-3.11-.14-6.26-.24-9.38q-.27-9.18-.68-18.34c-.08-1.75-.15-3.5-.25-5.25-.46-10.34-1-20.7-1.62-31a6 6 0 0 0-.65-2.9 18 18 0 0 0-1.52-1.73c-2.21-2.77-1.51-7.73-1.48-11q11.66.15 23.28.09l16 7.51a12.8 12.8 0 0 0 3.8 1.3 4.27 4.27 0 0 0 3.72-1.2c.77-.88 1.36-2.33 2.52-2.19.93.1 1.35 1.2 1.5 2.13s.4 2 1.27 2.34a13 13 0 0 1 1.41.31c.7.35.8 1.27 1.14 2a3.69 3.69 0 0 0 2.53 1.85 10.9 10.9 0 0 0 3.22.1c6.73-.41 13.49-.68 20.24-1.06a3.2 3.2 0 0 1 1.24.09 1 1 0 0 1 .74.9 1.54 1.54 0 0 1-.62 1.07c-1.31 1.17-2.87 2.07-4.25 3.18-1.66 1.35-3.35 2.63-5 4l-13.09 10.31a5.1 5.1 0 0 0-1.19 1.18 1.82 1.82 0 0 0-.27 1.3ZM1555.72 357.19c1.52 1.31.93 3.25.92 5.24-.08 6.32-.14 12.65-.22 19l.08.19c-4 1.55-8.08 3-12.17 4.3-1.24.4-2.72.79-3.48-.45s-.63-2.69-.73-3.93a5.2 5.2 0 0 0-.83-2.78 1.48 1.48 0 0 0-1.74-.65 1.86 1.86 0 0 0-.69 1.48 69 69 0 0 0-.45 5.17 2.18 2.18 0 0 0 .25 1.39c.57.79 2.1.76 2.21 1.74.06.59-.53 1-1 1.31-10 6-19.9 12.31-29.82 18.51a5.4 5.4 0 0 0-2.29 2.13c-.45 1.11-.22 2.08-1.26 3-.6.55-1.39.87-2 1.43-.85.83-.57 1.93-.57 3 0 1.58-.13 3.16-.23 4.74-.21 2.85.34 6 .51 8.82a7.4 7.4 0 0 0 .86 3.76 12.6 12.6 0 0 0 2.68 2.47c.65.54 2.45 2.33 1.15 3-.41.22-1.27 0-1.69 0-1.69-.08-3.38-.14-5.06-.2-3.45-.16-6.91-.3-10.36-.44a11.5 11.5 0 0 1-4.32-.74 10.14 10.14 0 0 1-3.86-3.64 41 41 0 0 0-3.47-4.28 33.4 33.4 0 0 1-5.5-7.18 10.68 10.68 0 0 1-.68-8.77 10.3 10.3 0 0 0 .76-1.79 2 2 0 0 0-.28-1.84c-.62-.75-1.75-.67-2.69-.84a6.26 6.26 0 0 1-3.51-2.13 48 48 0 0 1-4.23-6.06c-1.49-2.35-3-4.69-4.5-7-3.07-4.63-6.24-9.18-9.68-13.54-1.7-2.18-3.87-4.5-6.62-4.47-1.64 0-3.25.91-4.83.52a6.77 6.77 0 0 1-2.93-2 5.4 5.4 0 0 0-3-1.78c-1.74-.17-2.66 1.89-3.6 3.05a65 65 0 0 0-3.9 5.23c-.78 1.18-1.55 2.65-1 4 .28.6.81 1.07 1.12 1.65s.24 1.49-.39 1.74a1.61 1.61 0 0 1-1.33-.34c-5-3-10.06-6.1-14.44-10a6.8 6.8 0 0 0-3.08-1.93 8 8 0 0 1-1.47-.26c-1.44-.56-1.36-2.23-1.7-3.46a45 45 0 0 0-1.88-4.79c-1.39-3.3-2.89-6.63-3.36-10.2a3.76 3.76 0 0 0-.93-2.59 5.8 5.8 0 0 0-2.52-.73c-1.82-.45-3.08-2.07-4.18-3.59-3.68-5-7.43-10-11.11-15.07l.2-.16c.28-.79.62-1.61.9-2.4 15.26-.48 30.44-.4 45.71-.14q1.63-13.57 3.31-27.18c.66-5.44 1.33-10.91 2-16.37.34-2.71.51-5.5 1-8.17a41 41 0 0 0 1-5.36c0-.73.31-6.42.65-11.42h.42l34.79 3.44c.7 7.06 1.61 14.08 2.43 21.13.64 5.6.19 10.68 7.11 11.39a7.6 7.6 0 0 1 3.79 1.11c1.53 1.12 2.06 3.15 3.38 4.51 2 2.06 5.21 2.1 8 2.66a18 18 0 0 1 8 3.82c2.23 1.92 3.78 3.45 7 3.19 2.31-.18 4.51-1.07 6.75-1.64s4.75-.77 6.78.36c1.55.85 2.71 2.43 4.41 2.92a28 28 0 0 0 3 .28c1.1.2 1.81.51 2.94 0a16 16 0 0 0 2.9-2.18 4.7 4.7 0 0 1 3.29-1.3c1.5.15 2.51 1.48 3.92 1.93a12.4 12.4 0 0 0 5.2.53 9.7 9.7 0 0 1 1.28.77c1.26 1 1.44 2.8 1.52 4.4s.19 3.39.28 5.09q.21 3.85.42 7.74c.12 2.2.31 4.41.35 6.61 0 1.42-.26 3.23.93 4.3.58.5 1.35.65 2 1.08a4.3 4.3 0 0 1 1.47 3.24 24.6 24.6 0 0 0 .25 3.65 5.5 5.5 0 0 0 1.66 2.77Z" class="cls-2"/><path d="M1542.34 269.52v3.85c0 13.47.34 26.86 1.37 40.31a4.9 4.9 0 0 0 1.1 3.26 3.6 3.6 0 0 0 .73.5 12.4 12.4 0 0 1-5.2-.53c-1.41-.45-2.42-1.78-3.92-1.93a4.7 4.7 0 0 0-3.29 1.3 16 16 0 0 1-2.9 2.18c-1.13.54-1.84.23-2.94 0a28 28 0 0 1-3-.28c-1.7-.49-2.86-2.07-4.41-2.92-2-1.13-4.54-.92-6.78-.36s-4.44 1.46-6.75 1.64c-3.2.26-4.75-1.27-7-3.19a18 18 0 0 0-8-3.82c-2.82-.56-6-.6-8-2.66-1.32-1.36-1.85-3.39-3.38-4.51a7.6 7.6 0 0 0-3.79-1.11c-6.92-.71-6.47-5.79-7.11-11.39-.82-7.05-1.73-14.07-2.43-21.13l-34.79-3.44h-.42c.28-4.13.61-7.77.88-7.79h.53c4.19-.07 9 .17 13.16.08a1 1 0 0 1 0-.17 50.3 50.3 0 0 1 11.44.33 9.7 9.7 0 0 1 3.61 1c1.59.91 2.67 2.19 4.67 2.27 1.83.06 3.5-.93 5.23-1.52a24.6 24.6 0 0 1 7.94-.88h17.57c2.63 0 5.29-.15 7.91-.11s5.23-.65 7.72-.34a22.6 22.6 0 0 1 4.52 1.55 27.6 27.6 0 0 0 9 1.11l16.45.19h.27Z" class="cls-2"/><path d="M1542.35 234v27h-.27l-16.45-.19a27.6 27.6 0 0 1-9-1.11 22.6 22.6 0 0 0-4.52-1.55c-2.49-.31-5.2.39-7.72.34s-5.28.11-7.91.11h-17.57a24.6 24.6 0 0 0-7.94.88c-1.73.59-3.4 1.58-5.23 1.52-2-.08-3.08-1.36-4.67-2.27a9.7 9.7 0 0 0-3.61-1 50.3 50.3 0 0 0-11.44-.33c1-15.93 1.72-31.9 2.57-47.84a22.32 22.32 0 0 1 15.05 1.3c1.78.82 3.73 1.92 5.55 1.22a11.1 11.1 0 0 0 2.7-2c1.7-1.26 4.31-.32 6.3-.26 2.58.06 5.15-.11 7.72-.21 5-.24 10.21-.38 14.95 1.54 3.07 1.26 5.9 3.35 9.19 3.55s6.49-1.57 9.65-2.74a28.3 28.3 0 0 1 12.64-1.64l.2-.08a6 6 0 0 0 1.85 2.14c1.31 1 2.87 1.57 4.22 2.5a3.51 3.51 0 0 1 1.72 2.46c.09 1.38-1.18 2.45-1.72 3.73-1.25 3 .91 4 2.31 6s1.43 4.68 1.43 6.93Z" class="cls-2"/><path d="M1532.59 205.28c.38 1-.25 2-.39 3a3.6 3.6 0 0 0 .35 2l-.2.08a28.3 28.3 0 0 0-12.64 1.64c-3.16 1.17-6.29 2.95-9.65 2.74s-6.12-2.29-9.19-3.55c-4.74-1.92-9.94-1.78-14.95-1.54-2.57.1-5.14.27-7.72.21-2-.06-4.6-1-6.3.26a11.1 11.1 0 0 1-2.7 2c-1.82.7-3.77-.4-5.55-1.22a22.32 22.32 0 0 0-15.05-1.3c.28-5.17.57-10.34.9-15.51-8.2-1.05-16.27-2.2-24.47-3.25l3.9-31.31.49.06a5.33 5.33 0 0 1 4.28-1.27 24.5 24.5 0 0 1 4.45 1.08c4.42 1.26 9 1.46 13.62 1.66l33.16 1.42c2.44.11 3.87 1.23 5.66 2.88s3.7 3.61 6.15 3.65c2.09.05 4.33-1.33 6.13-.27 1.08.63 1.56 1.91 2.18 3s1.78 2.15 3 1.79 1.61-2 2.32-3.17c1.1-1.79 2.3-1.75 4.24-1.92a48 48 0 0 0 7-1.08c.11 1.67.19 3.36.28 5s-.47 5.74.63 6.93c.4.45 1 .71 1.36 1.16a4.2 4.2 0 0 1 .81 2.11q1.09 5.82 2.49 11.58c.61 2.5.88 8.37 3.36 9.53a10 10 0 0 1 1.33.7 2 2 0 0 1 .72.91Z" class="cls-2"/><path d="M1521.38 164.19c.06 1.05.12 2.11.17 3.16a48 48 0 0 1-7 1.08c-1.94.17-3.14.13-4.24 1.92-.71 1.15-1 2.79-2.32 3.17s-2.36-.71-3-1.79-1.1-2.37-2.18-3c-1.8-1.06-4 .32-6.13.27-2.45 0-4.35-2-6.15-3.65s-3.22-2.77-5.66-2.88l-33.16-1.42c-4.58-.2-9.2-.4-13.62-1.66a24.5 24.5 0 0 0-4.45-1.08 5.33 5.33 0 0 0-4.28 1.27l-.49-.06q2.28-18.35 4.57-36.69c.52-4.25 1-8.49 1.57-12.75h.3a65.4 65.4 0 0 1 22.26 2.9 18.8 18.8 0 0 0 6.25 1.28c2.1-.09 4.08-1 6.11-1.64 3.48-1.13 7.42-.34 11.07-.33 4.19 0 8.37.24 12.57.47 8.49.48 17 1.08 25.5.65.1 1.75.17 3.5.25 5.25q.4 9.16.68 18.34c.1 3.12.08 6.27.24 9.38.1 2.18.91 4.25.1 6.34-.52 1.35-1.7 2.79-1.78 4.29a2.7 2.7 0 0 0 .22 1.3 16.5 16.5 0 0 0 1.72 2.26 7.3 7.3 0 0 1 .88 3.62Z" class="cls-2"/><path d="M1517.51 82.41c.59 10.33 1.16 20.69 1.62 31-8.51.43-17-.17-25.5-.65-4.2-.23-8.38-.44-12.57-.47-3.65 0-7.59-.8-11.07.33-2 .65-4 1.55-6.11 1.64a18.8 18.8 0 0 1-6.25-1.28 65.4 65.4 0 0 0-22.26-2.9h-.3q2.87-22.89 5.7-45.77l.09-.4h.14c24.21 1.66 48.56 2.54 72.86 2.79 0 3.32-.73 8.28 1.48 11a18 18 0 0 1 1.52 1.73 6 6 0 0 1 .65 2.98ZM1448.6 209.59c-.85 15.94-1.58 31.91-2.57 47.84a1 1 0 0 0 0 .17c-4.15.09-9-.15-13.16-.08v-.15L1354 246.81c0-.32.09-.65.14-1q4.8-31.48 10.36-62.87v-.14a55.9 55.9 0 0 0 19.78 2.4c1.58-.09 3.25-.23 4.63.53 1 .54 1.66 1.47 2.57 2.09 1.75 1.19 4 1.09 6.11 1 9.23-.36 18.33 2 27.37 2 8.2 1 16.27 2.2 24.47 3.25-.26 5.18-.55 10.35-.83 15.52Z" class="cls-2"/><path d="m1440.86 63.91-.09.4-5.7 45.77c-.52 4.26-1 8.5-1.57 12.75h-.13a197 197 0 0 1-21.81-2.32 75.5 75.5 0 0 0-10.44-1.61c-3-.13-5.81.28-8.73-.72-2.6-.89-5.3-2-8.1-2-3.23 0-6.42-.38-9.66-.72-7.33-.77-14.69-1.53-22-2.33-.42 2.44-.85 4.9-1.27 7.38a74 74 0 0 1-12.17-.59c-2-.28-4-.62-6-1-1.74-.39-3.66-.33-4.28-2.21-.38-1.2-.51-2.56-1.39-3.44-.73-.73-1.83-1-2.49-1.76a4.5 4.5 0 0 1-.82-2.37c-.39-2.63-.78-5.27-1.18-7.9-.18-1.3-.45-5-2.63-3.28-.51.42-1 1-1.7.84a1.34 1.34 0 0 1-1-1.29c-.11-1.82.79-4.16 1.18-6 .44-2.18.91-4.37 1.36-6.55a3.65 3.65 0 0 1 1-2.15 9.3 9.3 0 0 0 1.24-.84 1.85 1.85 0 0 0 .21-1.85c-.31-.79-.9-1.44-1.25-2.2-.45-1-.81-2-1.21-3q-1.23-3-2.55-5.85c-1.8-4-3.75-7.87-5.82-11.69-1-2-1.72-3.5-.9-5.56.93-2.33 1.81-4.69 2.72-7a2.76 2.76 0 0 0 .27-1.31 4.9 4.9 0 0 0-.71-1.52 4.34 4.34 0 0 1-.17-3.17 11.8 11.8 0 0 1 1.39-2.85Z" class="cls-2"/><path d="M1364.57 182.81v.14c-7.39-1.81-15.24-4.07-22.6-5.88q1.2-6.9 2.35-13.89c2.37-14.2 4.66-28.58 7.06-42.73.42-2.48.85-4.94 1.27-7.38 7.33.8 14.69 1.56 22 2.33 3.24.34 6.43.7 9.66.72 2.8 0 5.5 1.16 8.1 2 2.92 1 5.68.59 8.73.72a75.5 75.5 0 0 1 10.44 1.61 197 197 0 0 0 21.81 2.32h.13q-2.31 18.35-4.57 36.69l-3.9 31.31c-9 0-18.14-2.34-27.37-2-2.1.07-4.36.17-6.11-1-.91-.62-1.61-1.55-2.57-2.09-1.38-.76-3-.62-4.63-.53a55.9 55.9 0 0 1-19.8-2.34ZM1432.86 257.37v.15h-.53c-.27 0-.6 3.66-.88 7.79-.34 5-.6 10.69-.65 11.42a41 41 0 0 1-1 5.36c-.49 2.67-.66 5.46-1 8.17-.65 5.46-1.32 10.93-2 16.37q-1.65 13.59-3.31 27.18c-15.27-.26-30.45-.34-45.71.14-.28.79-.62 1.61-.9 2.4l-.2.16c-.5-.65-1-1.32-1.46-2-6.71-.45-13.37-1.37-20.1-1.37l-1.7 6.85-11.53-1.75q5.24-45.84 12.16-91.45Z" class="cls-2"/><path d="M1364.53 183q-5.55 31.37-10.36 62.87h-.09c-14.27-1.44-28.64-2.91-42.47-6.75-3.33-.92-6.68-2-10.13-1.95-2.78 0-6 .6-8-1.33l-.48-.08a1 1 0 0 0 0-.16c.12-1.39-.9-2.6-1.4-3.91-.68-1.84-.27-3.92.14-5.85q7.71-35.81 15.43-71.62 18.55 4.53 37.09 9-1.15 7-2.35 13.89c7.38 1.77 15.23 4.03 22.62 5.89Z" class="cls-2"/><path d="M1354 246.81q-6.91 45.63-12.16 91.45l-26.09-3.95c-2.3-1.29-4.61-2.57-6.91-3.87-14.72-8.23-29.58-16.14-44.43-24.16-.09-.76-.2-1.56-.32-2.37h.08c0-1.12 1.2-1.85 2.29-2.06a16 16 0 0 0 3.25-.58c1-.45 1.81-1.73 1.19-2.66a5 5 0 0 0-1.38-1c-1.86-1.33-1.92-5.13-1.22-7.07.9-2.41 3.65-3.73 4.41-6.13a11.3 11.3 0 0 0 .17-2.92c.16-3.58 4.83-5.13 4.23-8.95a12.9 12.9 0 0 0-2.06-4.64l-1.24-2 .2-.12a5.6 5.6 0 0 0 2.28 0 1.91 1.91 0 0 0 1.42-1.63c0-1.11-1.25-1.76-1.81-2.74a4.73 4.73 0 0 1-.11-3.26c.56-2.62.93-5.7 2-8.14.72-1.53 1.3-4.37 2.51-5.51a1.8 1.8 0 0 1 2.38-.19c.78.74.41 2 .59 3.07a2.9 2.9 0 0 0 3.28 2.23c2.5-.5 2.17-2.78 1.72-4.56-.55-2.18-.48-4.08 1.5-5.64 1.29-1 2.93-2 3.15-3.61l.48.08c2 1.93 5.23 1.34 8 1.33 3.45 0 6.8 1 10.13 1.95 13.83 3.84 28.2 5.31 42.47 6.75h.09c.03.25-.01.58-.09.9ZM1307.19 154.16l-33.86-8.22c2.29-7.71 4.86-15.37 7.26-23.06q1.92-6.15 3.87-12.31c.63-2 1.28-4.1 1.92-6.16.54-1.68 1.85-4.13 1.85-5.89a5.4 5.4 0 0 1 1.38-2.6 6 6 0 0 1 2.06-1 3.87 3.87 0 0 0 1.92-1.21c1.19-1.61-1.47-4.21-2.32-5.46l-2.49-3.68.15-.11 6.92-24.89a7.63 7.63 0 0 1 2.41-4.23c1.32-1.22 1.78-3.09 2.16-4.86 1.22-5.57 2.44-11.12 3.65-16.7v-.18l10.33 2.29a11.8 11.8 0 0 0-1.39 2.85 4.34 4.34 0 0 0 .17 3.17 4.9 4.9 0 0 1 .71 1.52 2.76 2.76 0 0 1-.27 1.31c-.91 2.35-1.79 4.71-2.72 7-.82 2.06-.15 3.59.9 5.56 2.07 3.82 4 7.72 5.82 11.69q1.32 2.9 2.55 5.85c.4 1 .76 2 1.21 3 .35.76.94 1.41 1.25 2.2a1.85 1.85 0 0 1-.21 1.85 9.3 9.3 0 0 1-1.24.84 3.65 3.65 0 0 0-1 2.15c-.45 2.18-.92 4.37-1.36 6.55-.39 1.81-1.29 4.15-1.18 6a1.34 1.34 0 0 0 1 1.29c.65.11 1.19-.42 1.7-.84 2.18-1.73 2.45 2 2.63 3.28.4 2.63.79 5.27 1.18 7.9a4.5 4.5 0 0 0 .82 2.37c.66.78 1.76 1 2.49 1.76.88.88 1 2.24 1.39 3.44.62 1.88 2.54 1.82 4.28 2.21 2 .43 4 .77 6 1a74 74 0 0 0 12.17.59c-2.4 14.15-4.69 28.53-7.06 42.73q-18.51-4.48-37.05-9Z" class="cls-2"/><path d="m1273.33 145.94 33.86 8.22q-7.7 35.82-15.43 71.62c-.41 1.93-.82 4-.14 5.85.5 1.31 1.52 2.52 1.4 3.91a1 1 0 0 1 0 .16c-.22 1.59-1.86 2.58-3.15 3.61-2 1.56-2 3.46-1.5 5.64.45 1.78.78 4.06-1.72 4.56a2.9 2.9 0 0 1-3.28-2.23c-.18-1.06.19-2.33-.59-3.07a1.8 1.8 0 0 0-2.38.19c-1.21 1.14-1.79 4-2.51 5.51-1.11 2.44-1.48 5.52-2 8.14a4.73 4.73 0 0 0 .11 3.26c.56 1 1.81 1.63 1.81 2.74a1.91 1.91 0 0 1-1.42 1.63 5.6 5.6 0 0 1-2.28 0l-.2.12c-3-4.89-6-9.8-9-14.69q-10.89-17.81-21.8-35.6-5.43-8.9-10.88-17.78c-1.82-3-3.59-6-5.45-8.9-1.59-2.51-2.7-3.9-2.36-7.12.18-1.75-.47-3.32-.28-5.08a9.4 9.4 0 0 1 1.28-3.25c2.74-5.29 3.83-11.44 5.31-17.16q2.53-9.69 5.08-19.38l-.13-.05ZM1304.11 33.59v.18c-1.21 5.58-2.43 11.13-3.65 16.7-.38 1.77-.84 3.64-2.16 4.86a7.63 7.63 0 0 0-2.41 4.23l-6.92 24.89-.15.11L1287 82a5.66 5.66 0 0 0-2.27-2.28c-1.71-.73-3.61.31-5.47.4a6.7 6.7 0 0 1-2.94-.49c-.9-.39-1-.85-1.56-1.47-1.15-1.22-3-1-4.52-1.1l-6.39-.34c-4.18-.23-8.35-.47-12.52-.68-3.81-.22-7.7-.22-11.49-.64-1.73-.18-6.07-.2-6.9-2a5.8 5.8 0 0 1-.31-1.56 1.62 1.62 0 0 0-.85-1.29c-.78-.29-1.54.48-2.34.67a2.31 2.31 0 0 1-2.2-.9c-.9-1.1-.82-2.27-2.09-3a6.8 6.8 0 0 1-1.84-1.29c-.79-1-.68-2.33-1-3.54a7 7 0 0 0-3.61-4.21 20.9 20.9 0 0 0-5.43-1.73l-.17-.05c.25-.91.51-1.83.68-2.66a3.66 3.66 0 0 1 1.15-2.31c.76-.56 1.93-.53 2.41-1.33a1.84 1.84 0 0 0-.06-1.72c-.26-.54-.67-1-.91-1.56a6.7 6.7 0 0 1-.34-3.27c.44-7.32.68-14.69 1.25-22 .05-.48.25-1.11.73-1.06.24 0 .43.23.59.43 2 2.57 3.88 6.21 6.7 7.88a12.2 12.2 0 0 0 3.08 1.11l6 1.58a2.6 2.6 0 0 1 1.32.62c.76.84.14 1.78 0 2.69a23 23 0 0 0 0 3.5l.09 7.66a1 1 0 0 0 .09.53c.21.32.69.31 1.06.2a5.29 5.29 0 0 0 3.82-4.83c0-.76-.08-1.62.46-2.13s1-.45 1.54-.73c.85-.5.4-3 .43-3.81.06-1.66.16-3.3.25-4.95.18-3.36.37-6.72.43-10.09Z" class="cls-2"/><path d="M1291.27 88.24c.85 1.25 3.51 3.85 2.32 5.46a3.87 3.87 0 0 1-1.92 1.21 6 6 0 0 0-2.06 1 5.4 5.4 0 0 0-1.38 2.6c0 1.76-1.31 4.21-1.85 5.89-.64 2.06-1.29 4.11-1.92 6.16q-1.95 6.17-3.87 12.31c-2.4 7.69-5 15.35-7.26 23.06l-37.69-9.16c-9.68-3.23-19.31-6.55-29-9.8a6.26 6.26 0 0 1-5-.2l-16-6.08-.65-.11c.28-1.78.54-3.58.79-5.36.2-1.39.35-2.92-.44-4.1-.51-.77-1.39-1.28-1.79-2.12a2.33 2.33 0 0 1 .49-2.66c.86-.79 1.52-.19 2.39-.43s1.21-1.19 1.73-2.09c1.24-2.11 2.46-4.2 3.7-6.29q3.63-6.15 7.24-12.3a45 45 0 0 0 5-10.5c.56-2 .87-4.14 2.18-5.74s3.17-2.27 4.69-3.53c1.86-1.56 1.58-2.86 1.53-4.9a14.7 14.7 0 0 1 .7-4.12l.17.05a20.9 20.9 0 0 1 5.43 1.73 7 7 0 0 1 3.61 4.21c.31 1.21.2 2.58 1 3.54a6.8 6.8 0 0 0 1.84 1.29c1.27.76 1.19 1.93 2.09 3a2.31 2.31 0 0 0 2.2.9c.8-.19 1.56-1 2.34-.67a1.62 1.62 0 0 1 .85 1.29 5.8 5.8 0 0 0 .31 1.56c.83 1.78 5.17 1.8 6.9 2 3.79.42 7.68.42 11.49.64 4.17.21 8.34.45 12.52.68l6.39.34c1.55.08 3.37-.12 4.52 1.1.57.62.66 1.08 1.56 1.47a6.7 6.7 0 0 0 2.94.49c1.86-.09 3.76-1.13 5.47-.4A5.66 5.66 0 0 1 1287 82l1.74 2.57Z" class="cls-2"/><path d="M1277.14 272.49c.6 3.82-4.07 5.37-4.23 8.95a11.3 11.3 0 0 1-.17 2.92c-.76 2.4-3.51 3.72-4.41 6.13-.7 1.94-.64 5.74 1.22 7.07a5 5 0 0 1 1.38 1c.62.93-.17 2.21-1.19 2.66a16 16 0 0 1-3.25.58c-1.09.21-2.25.94-2.29 2.06h-.08c-.16-1.07-.31-2.15-.43-3.17-10.75-.47-21.8-.85-32.55-1.32-.16-3.47-.31-6.92-.45-10.38a3.7 3.7 0 0 0-.44-1.89c-.41-.62-1.16-.93-1.68-1.46a4.84 4.84 0 0 1-1-3.76 3.18 3.18 0 0 0-.53-2.44c-.6-.62-1.58-.59-2.41-.75a4.75 4.75 0 0 1-3.55-3.31 4.13 4.13 0 0 1-.14-2.48 5.35 5.35 0 0 0 .41-2.81 3.69 3.69 0 0 0-2.68-2.17c-2.65-.77-5.82-2-7.8-4-.87-.88-1.47-2-2.37-2.83-1.49-1.39-3.59-1.89-5.6-2.31l-6.36-1.37a5.4 5.4 0 0 1-3-1.37c-.9-1-.73-2.26-.76-3.51s-.14-2.48-.11-3.76c.06-3.07.12-6.13.19-9.2a17.8 17.8 0 0 0-.2-3.79c-.53-2.46-2.2-4.89-3.53-7-1.61-2.53-3.13-5.25-3.27-8.24a17 17 0 0 0-.11-2.27 2.8 2.8 0 0 0-1.08-1.94c-.45-.29-1-.4-1.43-.71a2.92 2.92 0 0 1-.74-2.85 63 63 0 0 0 .28-7.52c.11-2.77.19-5.52.23-8.29a6.8 6.8 0 0 0-.18-2.16c-.41-1.33-1.27-1.14-2.11-1.88a2.19 2.19 0 0 1-.4-2.3c.25-.77.7-1.48.88-2.27.4-1.64-.34-3.31-1.07-4.83l-3.65-7.62a10.6 10.6 0 0 0-1.65-3c-.7-.69-1.6-1.16-2-2.15-.63-1.73 1-3.36 2.09-4.87 2.37-3.33 2.08-7.82 1.66-11.89-.15-1.58-.42-3.36-1.73-4.26-.76-.52-1.8-.66-2.34-1.41a2.23 2.23 0 0 1 0-2.38 6.6 6.6 0 0 1 1.74-1.79 80 80 0 0 0 6.81-5.89c1.52-1.53 1.38-3.63 1.78-5.69.76-4 1.44-8 2.08-12.06l.65.11 16 6.08a6.26 6.26 0 0 0 5 .2c9.69 3.25 19.32 6.57 29 9.8l.13.05q-2.54 9.7-5.08 19.38c-1.48 5.72-2.57 11.87-5.31 17.16a9.4 9.4 0 0 0-1.28 3.25c-.19 1.76.46 3.33.28 5.08-.34 3.22.77 4.61 2.36 7.12 1.86 2.92 3.63 5.93 5.45 8.9q5.43 8.9 10.88 17.78 10.89 17.81 21.8 35.6c3 4.89 6 9.8 9 14.69l1.24 2a12.9 12.9 0 0 1 2.1 4.78ZM1388.29 405.86q-.72 39.06-3.36 78.07c4.2 3.58 9.37 6.76 13.57 10.35a3.14 3.14 0 0 0 2.12 1c.79-.06 1.4-.69 2.11-1.05 2.25-1.11 4.79.73 6.6 2.46Q1417 504 1424 511.85c2.41 2.68 5.22 5.38 7.25 8.37 1.86 2.75 2.88 6.3 4 9.42.29.81.53 1.84-.09 2.43-.84.79-2.17-.06-3-.88a70 70 0 0 1-5.81-6c-1.69-2.21-2.24-4.76-4.68-6.45-1.06-.73-2.38-1.34-2.75-2.57s.34-2.76-.53-3.69c-.73-.77-2-.48-3-.69-2-.39-2.92-2.45-4-3.93-.91-1.27-3.43-3.91-5.16-2.88-.88.52-1 1.74-1.79 2.43-1.21 1.1-3.13.32-4.53-.53q-5.94-3.58-11.56-7.68a167 167 0 0 1-5.63-4.28c-.62-.49-1.4-.9-2-1.42-.73-.67-1.1-1.54-2-2a6.3 6.3 0 0 0-2.21-.47c-2.18 0-4.42-.37-6.59-.55a6.7 6.7 0 0 1-5.1-2.27q-2.43-2.48-4.77-5c-.78-.86-1.55-1.72-2.31-2.59-.58-.66-1.66-1.09-1.91-1.93-.14-.46-.24-1-.66-1.23a1 1 0 0 0-1.37.56 2.3 2.3 0 0 0 0 1.63 8.5 8.5 0 0 1 .42 1.61 3.37 3.37 0 0 1-1.22 2.63 9.8 9.8 0 0 1-2.59 1.5l-9.33 4.23c-1.5.68-3.14 1.26-4.57 2.07-.47.26-.86.75-1.42.61a1.47 1.47 0 0 1-.85-1.46 5.3 5.3 0 0 1 1.13-2.25 10.67 10.67 0 0 0 1.53-5.91 32 32 0 0 0-.83-6.13c-.12-.61-.36-1.35-1-1.47a1.18 1.18 0 0 0-1.21.94 9.3 9.3 0 0 0-.15 1.67 4.12 4.12 0 0 1-1.2 2.53c-.62.54-1.51.7-2.19 1.22a5.91 5.91 0 0 0-2.39 4.67c0 1.53.6 3.14 0 4.53a5.5 5.5 0 0 1-2.19 2.12 207.5 207.5 0 0 1-24.85 13.45 32.3 32.3 0 0 1-8 2.51 2.94 2.94 0 0 0-1.4.51 10 10 0 0 1-1.11.93 5.16 5.16 0 0 1-3.12.44c-1.67-.23-3.25-1-4.92-1.12-2.13-.2-4.23.52-6.33.93-5.66 1.1-11.49-.07-17.14-1.25-.51-.1-1.13-.33-1.16-.85s.71-.86 1.29-.95l15.75-2.33c2.36-.35 5-.43 7.25-1.22 1.84-.64 4-.55 5.5-2.05.94-1 1.5-2.53 2.83-2.81 1-.23 2 .43 3.06.42a4.93 4.93 0 0 0 3-1.51l12.28-10.46a3.6 3.6 0 0 0 .93-1 1.18 1.18 0 0 0-.11-1.32 1.64 1.64 0 0 0-1.72-.13 9.8 9.8 0 0 0-3 1.64 6.24 6.24 0 0 1-2.33 1.51c-2.42.55-4.07-2.57-5.2-4.18-.79-1.13-1.9-2.24-3.28-2.25s-2.5.88-3.65.41-1.43-2.14-1.42-3.47v-5.23c0-1.52-.12-2.63-1.76-3.22-.93-.34-2-.37-2.91-.64a2.84 2.84 0 0 1-2.13-1.88c-.31-1.47 1.18-2.65 1.67-4.07a6.4 6.4 0 0 0 .24-2.57c-.22-3-.24-6.11-.66-9.1a4.6 4.6 0 0 1 .25-3 6.94 6.94 0 0 1 2.3-2.92c1.62-1.1 4.09-1.09 5.33.42.38.46.7 1.07 1.28 1.16a1.73 1.73 0 0 0 .89-.17q6.2-2.42 12.25-5.17c1-.44 2-.89 2.92-1.35 1.23-.58 1.33-.77 1.55-2.14a21.9 21.9 0 0 0 .12-6.41c-.06-.39-.16-.84-.53-1s-1 .35-1.19.89-.26 1.19-.75 1.46a1.74 1.74 0 0 1-1.5-.13l-8.63-3.56c-1.32-.54-2.79-1.24-3.2-2.6-.33-1.09.13-2.27 0-3.4a6.1 6.1 0 0 0-1.26-2.78 9.5 9.5 0 0 1-1.53-2.65c-.75-2.48 2.11-4.47 4.19-5.09a7.42 7.42 0 0 1 5.43.51c1 .53 2.21 1.32 3.23.76.75-.41 1.13-1.49 2-1.56a1.38 1.38 0 0 1 1.24.83 4.5 4.5 0 0 1 .34 1.55c.1.86 1.27 7.27 3.22 4.57a2.87 2.87 0 0 0 .35-1.79l-.22-10.53c-.05-2.53 1-5.67-2.23-6.45a6 6 0 0 1-1.17-.3 1 1 0 0 1-.65-.93c0-.43.44-.73.8-1 5.9-3.71 12.35-6.45 18.76-9.17l7.67-3.25c2.2-.93 4.66-2.29 7-2.73a4.14 4.14 0 0 1 3.39.71 11.6 11.6 0 0 1 1.59 2.09 13.2 13.2 0 0 0 3.27 2.87l16.71 11.72c3.63-.11 7.2-.25 10.83-.37a2.26 2.26 0 0 1 1.82.49 5 5 0 0 1 .58 1.43 3.2 3.2 0 0 0 2.77 1.58 27 27 0 0 1 3.34.17c1.1.27 2.41.08 2.39 1.2ZM1246 510.35c-1.9 1-3.64 2.45-5.72 3a20 20 0 0 1-5.19.35 33.6 33.6 0 0 0-8.16 1 3.9 3.9 0 0 0-1.55.66 1.44 1.44 0 0 0-.55 1.51c.28.84 1.39 1 2.29 1h15.36c1.32 0 2.94-.2 3.4-1.43.24-.63.07-1.36.33-2 .44-1.07 1.87-1.29 3-1.2s2.55.3 3.44-.57a2.27 2.27 0 0 0 0-3.06c-1.5-1.42-5.12-.09-6.65.74ZM1211.55 515.09c.91.74 2.38 1 3.19.2s.36-2.52-.65-3.26a9.3 9.3 0 0 0-3.55-1.18 16 16 0 0 1-6.84-3.41c-.74-.62-1.69-1.36-2.56-.95a1.85 1.85 0 0 0-.78 2c.28 1.75 1.76 3 3.26 4a20.9 20.9 0 0 0 10.76 3.2M1268.45 428c.73 1.24 2.45 1.32 3.71 2 1.51.81 2.83 2.88 4 4.15a4.2 4.2 0 0 0 1.83 1.33 1.63 1.63 0 0 0 2-.75c.87-2.09-1.87-5.4-3-7-1.53-2-2.48-4.57-5.48-4.45-2.14.14-4.27 2.72-3.06 4.72ZM1618.11 461.11a3.74 3.74 0 0 0 4.61 1.21c1.35-.74 2-2.36 3.36-3.12s3-.57 4-1.64a2.79 2.79 0 0 0 .15-3.28 4.92 4.92 0 0 0-2.84-2c-4.52-1.28-13.29 3.36-9.28 8.83ZM1609.59 457a16.8 16.8 0 0 0-6.4 5.36 1.94 1.94 0 0 0-.43 1.27 1.38 1.38 0 0 0 1.45 1 3.73 3.73 0 0 0 1.79-.63 39 39 0 0 0 3.48-2.36 5.6 5.6 0 0 0 1.73-1.8 2.16 2.16 0 0 0-.09-2.37 1.37 1.37 0 0 0-2.15 0M1652.76 474.48c.56 1.2 1.64 2.55 2.9 2.16 1.08-.33 1.42-1.74 2.37-2.35 1.82-1.18 4.42 1.19 6.31.13a2.64 2.64 0 0 0 1-3.07 6.4 6.4 0 0 0-2.09-2.73 24.3 24.3 0 0 0-5.35-3.49c-2.51-1.2-6.12-1.48-7.15 1.83-.75 2.2 1.09 5.59 2.01 7.52ZM1673 480.32a5.9 5.9 0 0 0 2.49 2.3 7.6 7.6 0 0 1 2.67 2.14 12.1 12.1 0 0 1 1.08 3.55c.34 1.21 1.14 2.47 2.38 2.58 1.6.14 2.62-1.59 3.24-3.07.84-2 1.67-4 2.51-6a4.23 4.23 0 0 0 .48-2.47c-.35-1.56-2.22-2.17-3.8-2.37-2.05-.27-13.29-1.47-11.05 3.34ZM1704.49 506.74c-.92 2.27-4.6 2.1-5.77 4.24-.74 1.35-.15 3 .77 4.28a36 36 0 0 1 2.9 3.56c2.08 3.66.5 8.42 2.07 12.29a3.48 3.48 0 0 0 2.93 2.29c4.52.1 6.59-7 10.85-8 1.92-.43 3.92-.21 5.85-.55s4-1.56 4.27-3.49-1.38-3.84-2.93-5.24l-14.9-13.33c-1.09-1-4.42-4.05-6-2.66s.69 4.79-.04 6.61ZM1701.43 492.25c1.33-.67 2.45-2.3 1.73-3.6-.59-1.06-2-1.19-2.79-2-1.14-1.14-1.38-2.7-2.92-3.57s-3.67-.51-4.27 1a3.77 3.77 0 0 0 .14 2.54c1.19 3.59 4.02 7.72 8.11 5.63Z" class="cls-2"/></g></g></svg>