<svg xmlns="http://www.w3.org/2000/svg" viewBox="0 0 389.7 322.2"><defs><style>.cls-1{fill:none;stroke:#c1d3fe;stroke-miterlimit:10;stroke-width:3px;}</style></defs><g id="Layer_2" data-name="Layer 2"><g id="Layer_1-2" data-name="Layer 1"><path class="cls-1" d="M202.39,272.06c0,26.86,32.66,48.64,72.95,48.64s73-21.78,73-48.64"/><line class="cls-1" x1="348.3" y1="273.58" x2="348.3" y2="234.06"/><line class="cls-1" x1="202.39" y1="273.58" x2="202.39" y2="231.02"/><path class="cls-1" d="M337.12,209.73c7.1,7.49,11.18,16.36,11.18,25.85,0,26.85-32.66,48.64-72.95,48.64s-73-21.79-73-48.64c0-.51,0-1,0-1.51h72.92V186.94c15.75,0,30.34,3.33,42.27,9"/><path class="cls-1" d="M219.16,169.46a110.8,110.8,0,0,1,35.54-5.67v50.67H176.28c.61-13.05,8.36-24.89,20.75-33.84"/><polyline class="cls-1" points="176.23 214.46 176.23 247.15 190.94 247.15"/><polyline class="cls-1" points="223.38 190.33 186.56 153.51 142.18 153.51"/><line class="cls-1" x1="186.27" y1="134.38" x2="141.71" y2="134.38"/><polyline class="cls-1" points="308.03 222.17 344.85 185.35 389.24 185.35"/><line class="cls-1" x1="345.14" y1="166.22" x2="389.7" y2="166.22"/><path class="cls-1" d="M50.87,149.88v-1a14.63,14.63,0,0,1,5.25-11.28,31.12,31.12,0,0,1,39.69,0,14.64,14.64,0,0,1,5.26,11.28v1"/><path class="cls-1" d="M87.29,112.74v2c0,8.69-5.07,15.73-11.32,15.73s-11.33-7-11.33-15.73v-2c0-5.46,5.07-9.87,11.33-9.87S87.29,107.28,87.29,112.74Z"/><path class="cls-1" d="M39.24,130.42a37.74,37.74,0,1,1,73.46,0"/><path class="cls-1" d="M108.1,141.5a37.75,37.75,0,0,1-64.26,0"/><polygon class="cls-1" points="25.34 43.2 18.51 57.05 3.22 59.27 14.28 70.06 11.67 85.28 25.34 78.09 39.02 85.28 36.41 70.06 47.47 59.27 32.18 57.05 25.34 43.2"/><polygon class="cls-1" points="126.59 43.2 133.43 57.05 148.72 59.27 137.65 70.06 140.26 85.28 126.59 78.09 112.92 85.28 115.53 70.06 104.47 59.27 119.76 57.05 126.59 43.2"/><polygon class="cls-1" points="75.97 13.95 69.13 27.8 53.85 30.02 64.91 40.8 62.3 56.03 75.97 48.84 89.64 56.03 87.03 40.8 98.09 30.02 82.81 27.8 75.97 13.95"/><rect class="cls-1" x="214.52" y="1.5" width="123.41" height="123.41" rx="12.85"/><polygon class="cls-1" points="268.19 96.14 237.98 65.46 251.32 52.12 268.19 69.46 302.98 34.44 316.32 47.78 268.19 96.14"/><path class="cls-1" d="M50.87,229.77H68.67a0,0,0,0,1,0,0v41.6a9,9,0,0,1-9,9H50.87a0,0,0,0,1,0,0V229.77A0,0,0,0,1,50.87,229.77Z"/><path class="cls-1" d="M114.83,265.9h6.69a4.27,4.27,0,0,1,4.27,4.27V275a4.27,4.27,0,0,1-4.27,4.27H84.6a17.87,17.87,0,0,1-8.61-2.2l-7.34-4"/><path class="cls-1" d="M115.87,265.9h10.71a4.27,4.27,0,0,0,4.27-4.27v-4.82a4.27,4.27,0,0,0-4.27-4.27H115.93"/><path class="cls-1" d="M120,252.54h10.75a4.28,4.28,0,0,0,4.28-4.28v-4.81a4.28,4.28,0,0,0-4.28-4.28h-8.93"/><line class="cls-1" x1="59.65" y1="263.31" x2="59.65" y2="270.92"/><path class="cls-1" d="M68.71,233.3h6.41a9,9,0,0,0,8.4-5.84l5.13-13.87a9.14,9.14,0,0,0,.55-3.11v-8.66a2.69,2.69,0,0,1,3-2.68h0a13.2,13.2,0,0,1,11.48,16.44l-1.44,5.55a4.48,4.48,0,0,0,4.34,5.6h22a4.26,4.26,0,0,1,4.28,4.27v3.91a4.27,4.27,0,0,1-4.27,4.27H116"/></g></g></svg>