<svg xmlns="http://www.w3.org/2000/svg" viewBox="0 0 389.7 322.2"><defs><style>.cls-1{fill:none;stroke:#c1d3fe;stroke-miterlimit:10;stroke-width:3px}</style></defs><g id="Layer_2" data-name="Layer 2"><g id="Layer_1-2" data-name="Layer 1"><path d="M202.39 272.06c0 26.86 32.66 48.64 72.95 48.64s73-21.78 73-48.64M348.3 273.58v-39.52M202.39 273.58v-42.56" class="cls-1"/><path d="M337.12 209.73c7.1 7.49 11.18 16.36 11.18 25.85 0 26.85-32.66 48.64-72.95 48.64s-73-21.79-73-48.64v-1.51h72.92v-47.13c15.75 0 30.34 3.33 42.27 9" class="cls-1"/><path d="M219.16 169.46a110.8 110.8 0 0 1 35.54-5.67v50.67h-78.42c.61-13.05 8.36-24.89 20.75-33.84M176.23 214.46v32.69h14.71" class="cls-1"/><path d="m223.38 190.33-36.82-36.82h-44.38M186.27 134.38h-44.56M308.03 222.17l36.82-36.82h44.39M345.14 166.22h44.56M50.87 149.88v-1a14.63 14.63 0 0 1 5.25-11.28 31.12 31.12 0 0 1 39.69 0 14.64 14.64 0 0 1 5.26 11.28v1" class="cls-1"/><path d="M87.29 112.74v2c0 8.69-5.07 15.73-11.32 15.73s-11.33-7-11.33-15.73v-2c0-5.46 5.07-9.87 11.33-9.87s11.32 4.41 11.32 9.87Z" class="cls-1"/><path d="M39.24 130.42a37.74 37.74 0 1 1 73.46 0M108.1 141.5a37.75 37.75 0 0 1-64.26 0M25.34 43.2l-6.83 13.85-15.29 2.22 11.06 10.79-2.61 15.22 13.67-7.19 13.68 7.19-2.61-15.22 11.06-10.79-15.29-2.22zM126.59 43.2l6.84 13.85 15.29 2.22-11.07 10.79 2.61 15.22-13.67-7.19-13.67 7.19 2.61-15.22-11.06-10.79 15.29-2.22zM75.97 13.95 69.13 27.8l-15.28 2.22L64.91 40.8 62.3 56.03l13.67-7.19 13.67 7.19-2.61-15.23 11.06-10.78-15.28-2.22z" class="cls-1"/><rect width="123.41" height="123.41" x="214.52" y="1.5" class="cls-1" rx="12.85"/><path d="m268.19 96.14-30.21-30.68 13.34-13.34 16.87 17.34 34.79-35.02 13.34 13.34zM50.87 229.77h17.8v41.6a9 9 0 0 1-9 9h-8.8v-50.6Z" class="cls-1"/><path d="M114.83 265.9h6.69a4.27 4.27 0 0 1 4.27 4.27V275a4.27 4.27 0 0 1-4.27 4.27H84.6a17.9 17.9 0 0 1-8.61-2.2l-7.34-4M115.87 265.9h10.71a4.27 4.27 0 0 0 4.27-4.27v-4.82a4.27 4.27 0 0 0-4.27-4.27h-10.65M120 252.54h10.75a4.28 4.28 0 0 0 4.28-4.28v-4.81a4.28 4.28 0 0 0-4.28-4.28h-8.93M59.65 263.31v7.61" class="cls-1"/><path d="M68.71 233.3h6.41a9 9 0 0 0 8.4-5.84l5.13-13.87a9.1 9.1 0 0 0 .55-3.11v-8.66a2.69 2.69 0 0 1 3-2.68 13.2 13.2 0 0 1 11.48 16.44l-1.44 5.55a4.48 4.48 0 0 0 4.34 5.6h22a4.26 4.26 0 0 1 4.28 4.27v3.91a4.27 4.27 0 0 1-4.27 4.27H116" class="cls-1"/></g></g></svg>