<svg xmlns="http://www.w3.org/2000/svg" viewBox="0 0 101.88 94.28"><defs><style>.cls-1{fill:none;stroke:#d42e4a;stroke-width:3px;stroke-linecap:round;stroke-linejoin:round}</style></defs><g id="Layer_2" data-name="Layer 2"><g id="Layer_1-2" data-name="Layer 1"><path d="M26.69 51.36a8.55 8.55 0 0 0-12.39.72 8.8 8.8 0 0 0-2.1 5.73 8.64 8.64 0 1 0 17.28 0 8.84 8.84 0 0 0-2.79-6.45M1.5 92.78v-7.56a11.25 11.25 0 0 1 4.05-8.68 24 24 0 0 1 30.57 0 11.25 11.25 0 0 1 4.05 8.68v7.56M10.54 85.89v6.89M31.13 85.89v6.89" class="cls-1"/><path d="M64.6 28a12.26 12.26 0 0 0 12.23-12.24C76.2-.51 53-.5 52.37 15.76A12.26 12.26 0 0 0 64.6 28Z" style="fill:none;stroke:#d42e4a;stroke-width:3px;stroke-miterlimit:10"/><path d="M48.48 23.02v-.01zM80.72 23.02v-.01zM77.94 46.58v-5.94a21.51 21.51 0 0 0 16.47-14.06l5.61-16c2.45-8.19-8.49-14.14-12.87-2.69-.19.38-4.75 11.5-6.08 14.44l-.35.71.19-.35a1.3 1.3 0 0 1-.19.35c-3.21 5.76-10.51 5-16.12 5s-12.91.74-16.12-5a1.6 1.6 0 0 1-.21-.39c.07.13.14.27.21.39l-.39-.77c-1.33-3-5.62-13.51-5.81-13.88-4.38-11.45-15.55-6-13.1 2.19l5.61 16a21.51 21.51 0 0 0 16.47 14.06v1.43M60.08 76.39l-8.54 9.65M65.68 92.78l17.48-19.75 8.11 7.17 1.81-29.74-18.73 3.46" class="cls-1"/><path d="M46.62 81.91 59.3 67.58l8.73 7.72 1.96-32.05-31.57 5.85 8.73 7.72L36.1 69.31" class="cls-1"/></g></g></svg>