<svg xmlns="http://www.w3.org/2000/svg" viewBox="0 0 130.25 118.11"><defs><style>.cls-1,.cls-2{fill:none;stroke:#020202;stroke-width:3px}.cls-1{stroke-linecap:round;stroke-linejoin:round}.cls-2{stroke-miterlimit:10}</style></defs><g id="Layer_2" data-name="Layer 2"><g id="Layer_1-2" data-name="Layer 1"><path d="m81.65 45.81-7.56 2.72a37.5 37.5 0 0 0-7.89 4.29" class="cls-1"/><path d="M69.87 18.09v3.12c0-3.73 3.68-6.74 8.22-6.74a9.18 9.18 0 0 1 6 2.08 6 6 0 0 0 .71.71c.18.15.37.29.56.42a6.47 6.47 0 0 0 7.16 0 6 6 0 0 0 .56-.42 5.4 5.4 0 0 0 .72-.71 9.13 9.13 0 0 1 5.94-2.08c4.54 0 8.22 3 8.22 6.74v-3.12c0-9.16-8.52-16.59-19-16.59S69.87 8.93 69.87 18.09Z" class="cls-2"/><path d="M69.87 21.21v.15c0 14.61 8.52 26.44 19 26.44s19-11.83 19-26.44v-.15c0-3.73-3.68-6.74-8.22-6.74a9.13 9.13 0 0 0-5.94 2.08 5.4 5.4 0 0 1-.72.71 6 6 0 0 1-.56.42 6.47 6.47 0 0 1-7.16 0c-.19-.13-.38-.27-.56-.42a6 6 0 0 1-.71-.71 9.18 9.18 0 0 0-6-2.08c-4.45 0-8.13 3.01-8.13 6.74Z" class="cls-2"/><path d="m85.13 97.28 16.76-8.7c7.37-4.15 7.37-5.67 7.37-10.34v-6.59" class="cls-1"/><path d="M97.32 45.09c1.89.53 9.83 2.77 11.75 3.55 4.55 1.85 7.6 3.27 11.32 6.36a23.26 23.26 0 0 1 8.36 17.91v11.72a22.2 22.2 0 0 1-14.42 20.61l-15.56 5.35M35.83 68.68 1.5 68.67l9.64 47.92 62.71.02h18.32" class="cls-1"/><path d="m73.94 105.92-7.65-37.24H35.83M50 68.67a16.08 16.08 0 0 0-32.15 0" class="cls-1"/><path d="M62.8 63.88h-.24a3.43 3.43 0 0 1-3.31-2.44A25 25 0 0 0 57 56.11a3.37 3.37 0 0 1 .59-4l.17-.17a3.36 3.36 0 0 0 .09-4.72 31 31 0 0 0-2.17-2.15 3.52 3.52 0 0 0-4.8.09l-.16.17a3.47 3.47 0 0 1-4.09.58 26.4 26.4 0 0 0-5.41-2.21 3.38 3.38 0 0 1-2.47-3.26v-.23a3.44 3.44 0 0 0-3.33-3.41c-1-.05-2-.05-3.07 0A3.44 3.44 0 0 0 29 40.18v.23a3.38 3.38 0 0 1-2.47 3.26 26.4 26.4 0 0 0-5.41 2.21 3.46 3.46 0 0 1-4.08-.58l-.18-.17A3.51 3.51 0 0 0 12.1 45c-.75.68-1.48 1.4-2.17 2.15a3.36 3.36 0 0 0 .07 4.76l.17.17a3.37 3.37 0 0 1 .59 4 25.6 25.6 0 0 0-2.24 5.33 3.43 3.43 0 0 1-3.31 2.44H5" class="cls-1"/><path d="M17.82 68.67a16.08 16.08 0 0 1 32.15 0" class="cls-1"/></g></g></svg>