<svg xmlns="http://www.w3.org/2000/svg" viewBox="0 0 99.25 94.3"><defs><style>.cls-1{fill:none;stroke:#d42e4a;stroke-linecap:round;stroke-linejoin:round;stroke-width:3px;}</style></defs><g id="Layer_2" data-name="Layer 2"><g id="Layer_1-2" data-name="Layer 1"><path class="cls-1" d="M70.48,19V5.54a4,4,0,0,1,4-4h1a4,4,0,0,1,4,4V24.93"/><path class="cls-1" d="M88.66,28.1V19.17a4,4,0,0,1,4-4h1a4,4,0,0,1,4,4v22.5a30.19,30.19,0,0,1-1,7.68h0A30.24,30.24,0,0,1,92.28,59l-2.83,4.05.82,29.69"/><path class="cls-1" d="M79.57,26.22V10.09a4,4,0,0,1,4.05-4h1a4,4,0,0,1,4,4.05V30.83"/><path class="cls-1" d="M70.48,52.1c0-8.85-8.21-12.9-12.8-12.9H55.32l-1.19-7.49a8.82,8.82,0,0,0-8.41-7.19h0a2,2,0,0,0-1.9,2.77h0a43.61,43.61,0,0,1,2.36,9l2,13a15.67,15.67,0,0,0,7.92,10.77l3.83,2.08L59.08,92.8"/><path class="cls-1" d="M70.48,25.92V10.09a4,4,0,0,0-4-4h-1a4,4,0,0,0-4,4.05v24"/><path class="cls-1" d="M26.51,26V13.5a3.77,3.77,0,0,1,3.77-3.77h.94A3.77,3.77,0,0,1,35,13.5V30.71"/><path class="cls-1" d="M44.23,82.75l0-16.38s4.46-.72,4.46-6.53"/><path class="cls-1" d="M35,31.91V17.74A3.77,3.77,0,0,1,38.76,14h.94a3.77,3.77,0,0,1,3.77,3.77v3.43"/><path class="cls-1" d="M24.49,55.54a10.53,10.53,0,0,0-9.93-10.63h-2.2l-1.11-7A8.24,8.24,0,0,0,3.4,31.21h0a1.9,1.9,0,0,0-1.77,2.58h0a40.67,40.67,0,0,1,2.2,8.39L5.67,54.35A14.62,14.62,0,0,0,13.06,64.4l3.57,1.94,0,16.43"/><path class="cls-1" d="M26.51,31.63V17.74A3.77,3.77,0,0,0,22.74,14H21.8A3.77,3.77,0,0,0,18,17.74V40.09"/><line class="cls-1" x1="56.96" y1="39.2" x2="74.14" y2="39.2"/><line class="cls-1" x1="12.72" y1="44.76" x2="29.03" y2="44.76"/></g></g></svg>