<svg xmlns="http://www.w3.org/2000/svg" viewBox="0 0 125.47 118.11"><defs><style>.cls-1{fill:none;stroke:#abc4ff;stroke-linecap:round;stroke-miterlimit:10;stroke-width:3px;}</style></defs><g id="Layer_2" data-name="Layer 2"><g id="Layer_1-2" data-name="Layer 1"><polygon class="cls-1" points="58.48 47.23 45.06 33.81 51.48 27.39 58.48 34.39 73.43 19.44 79.86 25.86 58.48 47.23"/><polyline class="cls-1" points="90.56 50.21 100.71 50.21 109.69 66.8 109.69 77.07 15.87 77.07 15.87 66.8 24.85 50.21 35.01 50.21"/><polyline class="cls-1" points="35.06 61.63 35.06 1.5 89.85 1.5 89.85 61.63"/><line class="cls-1" x1="95.87" y1="61.63" x2="29.05" y2="61.63"/><path class="cls-1" d="M97,14.77h21.72A5.28,5.28,0,0,1,124,20.05V90c0,2.92-2.37,5.28-4.23,5.28H7.83c-4,0-6.33-2.36-6.33-5.28V20a5.27,5.27,0,0,1,5.28-5.27H27.6"/><polyline class="cls-1" points="37.29 116.61 41.49 111.36 83.38 111.36 87.58 116.61"/><line class="cls-1" x1="49.93" y1="111.1" x2="49.93" y2="94.98"/><line class="cls-1" x1="73.97" y1="94.98" x2="73.97" y2="111.1"/></g></g></svg>