<svg xmlns="http://www.w3.org/2000/svg" viewBox="0 0 125.97 92.29"><defs><style>.cls-1{fill:none;stroke:#d42e4a;stroke-linecap:round;stroke-linejoin:round;stroke-width:3px}</style></defs><g id="Layer_2" data-name="Layer 2"><g id="Layer_1-2" data-name="Layer 1"><path d="M15.21 2.68s-.65 9.39-5.41 16S6.54 38.2 11 41.47s6.14 6.69 5.93 9.81a18.1 18.1 0 0 1 10.13 2c5 2.75 10.11 4.65 13 4.21s5.53 2.38 7.55 6.19 5.07-3.55 8.15 2 5.12 9.53 9.49 9.62-2.13-6.65 3.48-9.17 11.13 2.18 13.82.72 2.69-6.87 9.21-5 8.46 2.56 8.47 6.6 4.44 4.07 4.72 6.87 5.9-.94 2.36-8.23-2.89-13.09 2.38-18.21a15.05 15.05 0 0 0 4.13-14.58c-.72-3.42 3.31-6.92 6-9.44s0-6.66 3.5-9.07-2.08-8-2.08-10.31-5.63 3.24-5.42 6.66-5.93 2.71-6.92 5.87S99.14 28 97.79 29s-.56-5.79-2.23-6.46-6.59.63-7.65 3.78S84 27.56 84.62 24s3.47-5.14 6.5-6.94-7.4-2.21-12-.76 1.25-7.08-13.32-5.94S24 1.94 22.1 1.52s-1.72 4.61-6.89 1.16M36.42 64.55s5.88 4 8 4.16v11.67l8.08 7.9-15.21-4.62L35 80.38l-4.78 6.26-8.64 1.64v-4L26.54 77l-2.67-6.26ZM17.46 87.13l-7.73 1.61M1.5 85.62l3.39 1.57M79.78 78.26l1.45-.27M85 77.39l2.88-.31M91.34 79l1.27 1.09M95.97 82.31l1.77 1.14M96.86 87.56l2.81 3.23 4-1.56-2.08-4.22" class="cls-1"/></g></g></svg>