<svg xmlns="http://www.w3.org/2000/svg" viewBox="0 0 101.88 94.28"><defs><style>.cls-1,.cls-2{fill:none;stroke:#d42e4a;stroke-width:3px;}.cls-1{stroke-linecap:round;stroke-linejoin:round;}.cls-2{stroke-miterlimit:10;}</style></defs><g id="Layer_2" data-name="Layer 2"><g id="Layer_1-2" data-name="Layer 1"><path class="cls-1" d="M26.69,51.36a8.55,8.55,0,0,0-12.39.72,8.81,8.81,0,0,0-2.1,5.73,8.64,8.64,0,1,0,17.28,0A8.84,8.84,0,0,0,26.69,51.36Z"/><path class="cls-1" d="M1.5,92.78V85.22a11.25,11.25,0,0,1,4.05-8.68,24,24,0,0,1,30.57,0,11.25,11.25,0,0,1,4.05,8.68v7.56"/><line class="cls-1" x1="10.54" y1="85.89" x2="10.54" y2="92.78"/><line class="cls-1" x1="31.13" y1="85.89" x2="31.13" y2="92.78"/><path class="cls-2" d="M64.6,28A12.26,12.26,0,0,0,76.83,15.76C76.2-.51,53-.5,52.37,15.76A12.26,12.26,0,0,0,64.6,28Z"/><polygon class="cls-1" points="48.48 23.02 48.48 23.01 48.48 23.02 48.48 23.02"/><polygon class="cls-1" points="80.72 23.02 80.72 23.02 80.72 23.01 80.72 23.02"/><path class="cls-1" d="M77.94,46.58V40.64A21.51,21.51,0,0,0,94.41,26.58l5.61-16c2.45-8.19-8.49-14.14-12.87-2.69-.19.38-4.75,11.5-6.08,14.44l-.35.71.19-.35a1.27,1.27,0,0,1-.19.35c-3.21,5.76-10.51,5-16.12,5s-12.91.74-16.12-5a1.6,1.6,0,0,1-.21-.39c.07.13.14.27.21.39l-.39-.77c-1.33-3-5.62-13.51-5.81-13.88-4.38-11.45-15.55-6-13.1,2.19l5.61,16A21.51,21.51,0,0,0,51.26,40.64v1.43"/><line class="cls-1" x1="60.08" y1="76.39" x2="51.54" y2="86.04"/><polyline class="cls-1" points="65.68 92.78 83.16 73.03 91.27 80.2 93.08 50.46 74.35 53.92"/><polyline class="cls-1" points="46.62 81.91 59.3 67.58 68.03 75.3 69.99 43.25 38.42 49.1 47.15 56.82 36.1 69.31"/></g></g></svg>