<svg xmlns="http://www.w3.org/2000/svg" viewBox="0 0 130.25 118.11"><defs><style>.cls-1,.cls-2{fill:none;stroke:#020202;stroke-width:3px;}.cls-1{stroke-linecap:round;stroke-linejoin:round;}.cls-2{stroke-miterlimit:10;}</style></defs><g id="Layer_2" data-name="Layer 2"><g id="Layer_1-2" data-name="Layer 1"><path class="cls-1" d="M81.65,45.81l-7.56,2.72a37.52,37.52,0,0,0-7.89,4.29"/><path class="cls-2" d="M69.87,18.09v3.12c0-3.73,3.68-6.74,8.22-6.74a9.18,9.18,0,0,1,6,2.08h0a6,6,0,0,0,.71.71h0c.18.15.37.29.56.42a6.47,6.47,0,0,0,7.16,0,5.84,5.84,0,0,0,.56-.42h0a5.36,5.36,0,0,0,.72-.71h0a9.13,9.13,0,0,1,5.94-2.08c4.54,0,8.22,3,8.22,6.74V18.09c0-9.16-8.52-16.59-19-16.59S69.87,8.93,69.87,18.09Z"/><path class="cls-2" d="M69.87,21.21v.15c0,14.61,8.52,26.44,19,26.44s19-11.83,19-26.44v-.15c0-3.73-3.68-6.74-8.22-6.74a9.13,9.13,0,0,0-5.94,2.08h0a5.36,5.36,0,0,1-.72.71h0a5.84,5.84,0,0,1-.56.42,6.47,6.47,0,0,1-7.16,0c-.19-.13-.38-.27-.56-.42h0a6,6,0,0,1-.71-.71h0a9.18,9.18,0,0,0-6-2.08C73.55,14.47,69.87,17.48,69.87,21.21Z"/><path class="cls-1" d="M85.13,97.28l16.76-8.7c7.37-4.15,7.37-5.67,7.37-10.34V71.65"/><path class="cls-1" d="M97.32,45.09c1.89.53,9.83,2.77,11.75,3.55,4.55,1.85,7.6,3.27,11.32,6.36a23.26,23.26,0,0,1,8.36,17.91V84.63a22.2,22.2,0,0,1-14.42,20.61l-15.56,5.35"/><polyline class="cls-1" points="35.83 68.68 1.5 68.67 11.14 116.59 73.85 116.61 92.17 116.61"/><polyline class="cls-1" points="73.94 105.92 66.29 68.68 35.83 68.68"/><path class="cls-1" d="M50,68.67a16.08,16.08,0,0,0-32.15,0"/><path class="cls-1" d="M62.8,63.88h-.24a3.43,3.43,0,0,1-3.31-2.44A25.05,25.05,0,0,0,57,56.11a3.37,3.37,0,0,1,.59-4l.17-.17a3.36,3.36,0,0,0,.09-4.72c-.69-.75-1.41-1.47-2.17-2.15a3.52,3.52,0,0,0-4.8.09l-.16.17a3.47,3.47,0,0,1-4.09.58,26.38,26.38,0,0,0-5.41-2.21,3.38,3.38,0,0,1-2.47-3.26v-.23a3.44,3.44,0,0,0-3.33-3.41c-1-.05-2-.05-3.07,0A3.44,3.44,0,0,0,29,40.18v.23a3.38,3.38,0,0,1-2.47,3.26,26.38,26.38,0,0,0-5.41,2.21,3.46,3.46,0,0,1-4.08-.58l-.18-.17A3.51,3.51,0,0,0,12.1,45c-.75.68-1.48,1.4-2.17,2.15A3.36,3.36,0,0,0,10,51.91l.17.17a3.37,3.37,0,0,1,.59,4,25.58,25.58,0,0,0-2.24,5.33,3.43,3.43,0,0,1-3.31,2.44H5"/><path class="cls-1" d="M17.82,68.67a16.08,16.08,0,0,1,32.15,0"/></g></g></svg>