<svg xmlns="http://www.w3.org/2000/svg" viewBox="0 0 92.46 95.05"><defs><style>.cls-1{fill:none;stroke:#d42e4a;stroke-linecap:round;stroke-linejoin:round;stroke-width:3px;}</style></defs><g id="Layer_2" data-name="Layer 2"><g id="Layer_1-2" data-name="Layer 1"><line class="cls-1" x1="31.37" y1="53.24" x2="31.37" y2="58.54"/><line class="cls-1" x1="61.08" y1="53.24" x2="61.08" y2="58.54"/><polygon class="cls-1" points="15.1 67.67 19.3 76.19 28.7 77.56 21.9 84.19 23.51 93.55 15.1 89.13 6.7 93.55 8.3 84.19 1.5 77.56 10.9 76.19 15.1 67.67"/><polygon class="cls-1" points="77.35 67.67 73.15 76.19 63.75 77.56 70.55 84.19 68.95 93.55 77.35 89.13 85.76 93.55 84.16 84.19 90.95 77.56 81.56 76.19 77.35 67.67"/><polygon class="cls-1" points="46.23 51.41 52.17 63.44 65.45 65.37 55.84 74.74 58.11 87.97 46.23 81.73 34.35 87.97 36.62 74.74 27 65.37 40.29 63.44 46.23 51.41"/><path class="cls-1" d="M17.67,61.94V56a16.4,16.4,0,0,1,5.89-12.63,34.69,34.69,0,0,1,15.93-7.43h0l6.74,7.8L53,35.91a34.6,34.6,0,0,1,15.92,7.43A16.4,16.4,0,0,1,74.78,56v6"/><path class="cls-1" d="M33.62,12.49v2.06c0-2.46,2.44-4.46,5.45-4.46A6,6,0,0,1,43,11.47h0a3.48,3.48,0,0,0,.47.47h0l.38.28a4.31,4.31,0,0,0,4.74,0L49,12h0a3.55,3.55,0,0,0,.48-.47h0a6.06,6.06,0,0,1,3.94-1.38c3,0,5.44,2,5.44,4.46V12.49c0-6.07-5.64-11-12.6-11S33.62,6.42,33.62,12.49Z"/><path class="cls-1" d="M33.62,14.55v.11c0,9.67,5.64,17.52,12.61,17.52s12.6-7.85,12.6-17.52v-.11c0-2.46-2.43-4.46-5.44-4.46a6.06,6.06,0,0,0-3.94,1.38h0a3.55,3.55,0,0,1-.48.47h0l-.37.28a4.31,4.31,0,0,1-4.74,0L43.48,12h0a3.48,3.48,0,0,1-.47-.47h0a6,6,0,0,0-3.93-1.38C36.06,10.09,33.62,12.09,33.62,14.55Z"/></g></g></svg>