<svg xmlns="http://www.w3.org/2000/svg" viewBox="0 0 88.12 117.44"><defs><style>.cls-1{fill:none;stroke:#020202;stroke-miterlimit:10;stroke-width:3px;}</style></defs><g id="Layer_2" data-name="Layer 2"><g id="Layer_1-2" data-name="Layer 1"><path class="cls-1" d="M29.39,116.61l5.76-8.69,5-1.23a25.51,25.51,0,0,0,9.08-4.27l.06,0a25.49,25.49,0,0,0,7.09-8.09l2.12-3.83"/><path class="cls-1" d="M30.5,96.36C33,74.82,20,66.31,20,66.31l3.94-10.62a10.54,10.54,0,0,0-5-13.17l-.73-.32h0a2.86,2.86,0,0,0-3.71,1.56l-.36,1.72A65.71,65.71,0,0,1,6.88,64.57h0a19.84,19.84,0,0,0-1.53,3.35c-2.59,7.58-1.88,14.59,2,21.92L1.21,98.22"/><path class="cls-1" d="M31.35,90.42l34.83,0a9.26,9.26,0,0,0,9.27-9.25V75.85"/><path class="cls-1" d="M75.51,36.36V10.81a9.26,9.26,0,0,0-9.26-9.27l-37.81,0a9.26,9.26,0,0,0-9.27,9.25l0,32.07"/><line class="cls-1" x1="41.02" y1="80.39" x2="53.79" y2="80.22"/><path class="cls-1" d="M75.25,22.17l2.2-2.23A5.36,5.36,0,0,1,85,19.87h0a5.34,5.34,0,0,1,.06,7.6l-9.84,9.92"/><path class="cls-1" d="M76.39,49.18h0a8.89,8.89,0,0,1-5-4.74l-.08-.18a3,3,0,0,1,.6-3.29l3.61-3.73a5.37,5.37,0,0,1,7.59-.11h0a5.35,5.35,0,0,1,.11,7.58l-3.63,3.76A3,3,0,0,1,76.39,49.18Z"/><path class="cls-1" d="M76.61,63h0a8.82,8.82,0,0,1-5-4.73l-.08-.19a3,3,0,0,1,.59-3.29l3.61-3.72a5.37,5.37,0,0,1,7.59-.12h0a5.37,5.37,0,0,1,.12,7.59l-3.64,3.75A3,3,0,0,1,76.61,63Z"/><path class="cls-1" d="M76.82,76.81h0a8.86,8.86,0,0,1-5-4.74l-.08-.18a3,3,0,0,1,.59-3.3L76,64.87a5.36,5.36,0,0,1,7.58-.12h0a5.37,5.37,0,0,1,.12,7.59L80,76.09A3,3,0,0,1,76.82,76.81Z"/><polyline class="cls-1" points="43 54.84 48.72 60.55 59.73 49.54"/><polyline class="cls-1" points="50.2 48.11 37.55 48.11 37.55 67.62 57.74 67.62 57.74 61.59"/><rect class="cls-1" x="37.54" y="16.36" width="20.2" height="19.51"/></g></g></svg>