<svg xmlns="http://www.w3.org/2000/svg" viewBox="0 0 125.97 92.29"><defs><style>.cls-1{fill:none;stroke:#d42e4a;stroke-linecap:round;stroke-linejoin:round;stroke-width:3px;}</style></defs><g id="Layer_2" data-name="Layer 2"><g id="Layer_1-2" data-name="Layer 1"><path class="cls-1" d="M15.21,2.68s-.65,9.39-5.41,16S6.54,38.2,11,41.47s6.14,6.69,5.93,9.81a18.11,18.11,0,0,1,10.13,2c5,2.75,10.11,4.65,13,4.21s5.53,2.38,7.55,6.19,5.07-3.55,8.15,2,5.12,9.53,9.49,9.62-2.13-6.65,3.48-9.17,11.13,2.18,13.82.72,2.69-6.87,9.21-5,8.46,2.56,8.47,6.6,4.44,4.07,4.72,6.87,5.9-.94,2.36-8.23S104.42,54,109.69,48.88a15.05,15.05,0,0,0,4.13-14.58c-.72-3.42,3.31-6.92,6-9.44s0-6.66,3.5-9.07-2.08-8-2.08-10.31-5.63,3.24-5.42,6.66-5.93,2.71-6.92,5.87S99.14,28,97.79,29s-.56-5.79-2.23-6.46-6.59.63-7.65,3.78S84,27.56,84.62,24s3.47-5.14,6.5-6.94-7.4-2.21-12-.76,1.25-7.08-13.32-5.94S24,1.94,22.1,1.52,20.38,6.13,15.21,2.68Z"/><path class="cls-1" d="M36.42,64.55s5.88,4,8,4.16V80.38l8.08,7.9L37.29,83.66,35,80.38l-4.78,6.26-8.64,1.64v-4L26.54,77l-2.67-6.26Z"/><line class="cls-1" x1="17.46" y1="87.13" x2="9.73" y2="88.74"/><line class="cls-1" x1="1.5" y1="85.62" x2="4.89" y2="87.19"/><line class="cls-1" x1="79.78" y1="78.26" x2="81.23" y2="77.99"/><line class="cls-1" x1="85" y1="77.39" x2="87.88" y2="77.08"/><line class="cls-1" x1="91.34" y1="79" x2="92.61" y2="80.09"/><line class="cls-1" x1="95.97" y1="82.31" x2="97.74" y2="83.45"/><polyline class="cls-1" points="96.86 87.56 99.67 90.79 103.67 89.23 101.59 85.01"/></g></g></svg>