<svg xmlns="http://www.w3.org/2000/svg" viewBox="0 0 88.12 117.44"><defs><style>.cls-1{fill:none;stroke:#020202;stroke-miterlimit:10;stroke-width:3px}</style></defs><g id="Layer_2" data-name="Layer 2"><g id="Layer_1-2" data-name="Layer 1"><path d="m29.39 116.61 5.76-8.69 5-1.23a25.5 25.5 0 0 0 9.08-4.27h.06a25.5 25.5 0 0 0 7.09-8.09l2.12-3.83M30.5 96.36C33 74.82 20 66.31 20 66.31l3.94-10.62a10.54 10.54 0 0 0-5-13.17l-.73-.32a2.86 2.86 0 0 0-3.71 1.56l-.36 1.72a65.7 65.7 0 0 1-7.26 19.09 20 20 0 0 0-1.53 3.35c-2.59 7.58-1.88 14.59 2 21.92l-6.14 8.38M31.35 90.42h34.83a9.26 9.26 0 0 0 9.27-9.25v-5.32" class="cls-1"/><path d="M75.51 36.36V10.81a9.26 9.26 0 0 0-9.26-9.27H28.44a9.26 9.26 0 0 0-9.27 9.25v32.07M41.02 80.39l12.77-.17" class="cls-1"/><path d="m75.25 22.17 2.2-2.23a5.36 5.36 0 0 1 7.55-.07 5.34 5.34 0 0 1 .06 7.6l-9.84 9.92M76.39 49.18a8.9 8.9 0 0 1-5-4.74l-.08-.18a3 3 0 0 1 .6-3.29l3.61-3.73a5.37 5.37 0 0 1 7.59-.11 5.35 5.35 0 0 1 .11 7.58l-3.63 3.76a3 3 0 0 1-3.2.71Z" class="cls-1"/><path d="M76.61 63a8.82 8.82 0 0 1-5-4.73l-.08-.19a3 3 0 0 1 .59-3.29l3.61-3.72a5.37 5.37 0 0 1 7.59-.12 5.37 5.37 0 0 1 .12 7.59l-3.64 3.75a3 3 0 0 1-3.19.71ZM76.82 76.81a8.86 8.86 0 0 1-5-4.74l-.08-.18a3 3 0 0 1 .59-3.3L76 64.87a5.36 5.36 0 0 1 7.58-.12 5.37 5.37 0 0 1 .12 7.59L80 76.09a3 3 0 0 1-3.18.72ZM43 54.84l5.72 5.71 11.01-11.01" class="cls-1"/><path d="M50.2 48.11H37.55v19.51h20.19v-6.03M37.54 16.36h20.2v19.51h-20.2z" class="cls-1"/></g></g></svg>