<svg xmlns="http://www.w3.org/2000/svg" viewBox="0 0 125.47 118.11"><defs><style>.cls-1{fill:none;stroke:#abc4ff;stroke-linecap:round;stroke-miterlimit:10;stroke-width:3px}</style></defs><g id="Layer_2" data-name="Layer 2"><g id="Layer_1-2" data-name="Layer 1"><path d="M58.48 47.23 45.06 33.81l6.42-6.42 7 7 14.95-14.95 6.43 6.42zM90.56 50.21h10.15l8.98 16.59v10.27H15.87V66.8l8.98-16.59h10.16" class="cls-1"/><path d="M35.06 61.63V1.5h54.79v60.13M95.87 61.63H29.05" class="cls-1"/><path d="M97 14.77h21.72a5.28 5.28 0 0 1 5.28 5.28V90c0 2.92-2.37 5.28-4.23 5.28H7.83c-4 0-6.33-2.36-6.33-5.28V20a5.27 5.27 0 0 1 5.28-5.27H27.6M37.29 116.61l4.2-5.25h41.89l4.2 5.25M49.93 111.1V94.98M73.97 94.98v16.12" class="cls-1"/></g></g></svg>