<svg xmlns="http://www.w3.org/2000/svg" viewBox="0 0 92.46 95.05"><defs><style>.cls-1{fill:none;stroke:#d42e4a;stroke-linecap:round;stroke-linejoin:round;stroke-width:3px}</style></defs><g id="Layer_2" data-name="Layer 2"><g id="Layer_1-2" data-name="Layer 1"><path d="M31.37 53.24v5.3M61.08 53.24v5.3M15.1 67.67l4.2 8.52 9.4 1.37-6.8 6.63 1.61 9.36-8.41-4.42-8.4 4.42 1.6-9.36-6.8-6.63 9.4-1.37zM77.35 67.67l-4.2 8.52-9.4 1.37 6.8 6.63-1.6 9.36 8.4-4.42 8.41 4.42-1.6-9.36 6.79-6.63-9.39-1.37zM46.23 51.41l5.94 12.03 13.28 1.93-9.61 9.37 2.27 13.23-11.88-6.24-11.88 6.24 2.27-13.23L27 65.37l13.29-1.93z" class="cls-1"/><path d="M17.67 61.94V56a16.4 16.4 0 0 1 5.89-12.63 34.7 34.7 0 0 1 15.93-7.43h0l6.74 7.8L53 35.91a34.6 34.6 0 0 1 15.92 7.43A16.4 16.4 0 0 1 74.78 56v6M33.62 12.49v2.06c0-2.46 2.44-4.46 5.45-4.46A6 6 0 0 1 43 11.47h0a3.5 3.5 0 0 0 .47.47h0l.38.28a4.31 4.31 0 0 0 4.74 0L49 12h0a3.6 3.6 0 0 0 .48-.47h0a6.06 6.06 0 0 1 3.94-1.38c3 0 5.44 2 5.44 4.46v-2.12c0-6.07-5.64-11-12.6-11s-12.64 4.93-12.64 11" class="cls-1"/><path d="M33.62 14.55v.11c0 9.67 5.64 17.52 12.61 17.52s12.6-7.85 12.6-17.52v-.11c0-2.46-2.43-4.46-5.44-4.46a6.06 6.06 0 0 0-3.94 1.38h0a3.6 3.6 0 0 1-.48.47h0l-.37.28a4.31 4.31 0 0 1-4.74 0l-.38-.22h0a3.5 3.5 0 0 1-.47-.47h0a6 6 0 0 0-3.93-1.38c-3.02-.06-5.46 1.94-5.46 4.4" class="cls-1"/></g></g></svg>