<svg xmlns="http://www.w3.org/2000/svg" viewBox="0 0 280.07 36.94"><defs><style>.cls-1{fill:#fff}.cls-2{fill:#d42e4a}</style></defs><g id="Layer_2" data-name="Layer 2"><g id="Layer_1-2" data-name="Layer 1"><path d="M12.89 29.71A13 13 0 0 1 6.08 28a11.8 11.8 0 0 1-4.49-4.9A15.9 15.9 0 0 1 0 15.82a15.7 15.7 0 0 1 1.55-7.14A11.56 11.56 0 0 1 6 3.85a13.1 13.1 0 0 1 6.88-1.74 12.54 12.54 0 0 1 7.41 2.19 10.37 10.37 0 0 1 4.09 6.44l-4.93 1.15a7.42 7.42 0 0 0-2.4-4.33 6.5 6.5 0 0 0-4.23-1.43 7 7 0 0 0-4.18 1.23A7.8 7.8 0 0 0 6 10.79a13.2 13.2 0 0 0-.91 5.1A13.2 13.2 0 0 0 6 21.05a7.77 7.77 0 0 0 2.65 3.43 6.85 6.85 0 0 0 4.07 1.21 6.56 6.56 0 0 0 4.35-1.49 7.14 7.14 0 0 0 2.38-4.2l5.06 1.13a11 11 0 0 1-4.19 6.36 12.46 12.46 0 0 1-7.43 2.22M32.84 29.71a8.4 8.4 0 0 1-3.5-.7A5.8 5.8 0 0 1 26.87 27a5.6 5.6 0 0 1-.9-3.21 5.6 5.6 0 0 1 1.17-3.53 7.5 7.5 0 0 1 3.49-2.34 16.8 16.8 0 0 1 5.71-.92h3l-.33.45v-1.09a5.35 5.35 0 0 0-.82-3.25 3.16 3.16 0 0 0-2.7-1.11 3.77 3.77 0 0 0-2.76 1 4 4 0 0 0-1.11 2.61l-4.8-.91a6 6 0 0 1 1.34-3 7.65 7.65 0 0 1 3-2.13 12 12 0 0 1 4.6-.8 9.4 9.4 0 0 1 4.24.86 5.58 5.58 0 0 1 2.59 2.7 11.1 11.1 0 0 1 .9 4.67v7.69a1.3 1.3 0 0 0 .18.83q.16.21.75.21h1v3.48H43a4 4 0 0 1-2.84-1 3.53 3.53 0 0 1-1-2.68v-1.06l.78.22a8.4 8.4 0 0 1-.76 1.67A6.7 6.7 0 0 1 37.86 28a6.5 6.5 0 0 1-2.07 1.24 8.1 8.1 0 0 1-2.95.47m1.26-3.31a4.85 4.85 0 0 0 2.51-.66 4.54 4.54 0 0 0 1.78-2 7.9 7.9 0 0 0 .61-3.46V20h-2.59a8.2 8.2 0 0 0-3.39.57 3.8 3.8 0 0 0-1.72 1.33 3.2 3.2 0 0 0-.5 1.64 3 3 0 0 0 .33 1.37 2.54 2.54 0 0 0 1 1.07 3.84 3.84 0 0 0 1.97.42M48.4 29.25v-20h4.39v3.3a6.7 6.7 0 0 1 2.39-2.71 6.6 6.6 0 0 1 3.72-1.06 5.84 5.84 0 0 1 3.51 1.05 6.06 6.06 0 0 1 2.16 3 7.67 7.67 0 0 1 2.72-3A6.8 6.8 0 0 1 71 8.78a5.5 5.5 0 0 1 4.61 2.11 9.63 9.63 0 0 1 1.64 6v12.36h-4.59V17a9 9 0 0 0-.28-2.39 3.2 3.2 0 0 0-.94-1.63 2.7 2.7 0 0 0-1.87-.59 3.54 3.54 0 0 0-2.37.84 5.3 5.3 0 0 0-1.55 2.37 10.8 10.8 0 0 0-.55 3.6v10.1h-4.57V17a9 9 0 0 0-.28-2.39 3.2 3.2 0 0 0-.94-1.63 2.66 2.66 0 0 0-1.84-.59 3.6 3.6 0 0 0-2.38.83 5.37 5.37 0 0 0-1.56 2.36 10.7 10.7 0 0 0-.53 3.59v10.08ZM81.49 36.47V9.24h4.34v4.08l-.08-.3a6.5 6.5 0 0 1 2.75-3.21 7.7 7.7 0 0 1 3.92-1A7.5 7.5 0 0 1 96.77 10a8.15 8.15 0 0 1 2.86 3.61 14.1 14.1 0 0 1 1 5.63 14 14 0 0 1-1 5.59 8.2 8.2 0 0 1-2.88 3.59 7.6 7.6 0 0 1-4.37 1.25 7.8 7.8 0 0 1-3.92-1 6.83 6.83 0 0 1-2.84-3.32l.42-.09v11.21Zm9.34-10.31a4.24 4.24 0 0 0 3.56-1.84 8.55 8.55 0 0 0 1.35-5.15 8.4 8.4 0 0 0-1.32-5 4.18 4.18 0 0 0-3.55-1.79 4.5 4.5 0 0 0-2.51.73 5 5 0 0 0-1.81 2.26 9.8 9.8 0 0 0-.67 3.88 8 8 0 0 0 1.44 5.21 4.4 4.4 0 0 0 3.51 1.7M109.72 29.71a8.4 8.4 0 0 1-3.5-.7 5.7 5.7 0 0 1-2.46-2.01 5.54 5.54 0 0 1-.91-3.21 5.6 5.6 0 0 1 1.15-3.57 7.5 7.5 0 0 1 3.49-2.34 16.8 16.8 0 0 1 5.71-.84h3l-.33.45v-1.13a5.35 5.35 0 0 0-.82-3.25 3.16 3.16 0 0 0-2.7-1.09 3.77 3.77 0 0 0-2.76 1 4 4 0 0 0-1.11 2.61l-4.8-.91a6 6 0 0 1 1.34-3 7.65 7.65 0 0 1 3-2.13 12 12 0 0 1 4.6-.8 9.46 9.46 0 0 1 4.28.87 5.6 5.6 0 0 1 2.58 2.7 11.1 11.1 0 0 1 .86 4.71v7.69a1.3 1.3 0 0 0 .18.83 1 1 0 0 0 .75.21h1v3.48h-2.39a4 4 0 0 1-2.84-1 3.56 3.56 0 0 1-1-2.68v-1.13l.77.22a8.4 8.4 0 0 1-.76 1.67 6.7 6.7 0 0 1-1.31 1.64 6.4 6.4 0 0 1-2.06 1.24 8.2 8.2 0 0 1-2.96.47M111 26.4a4.85 4.85 0 0 0 2.51-.66 4.54 4.54 0 0 0 1.78-2 7.9 7.9 0 0 0 .66-3.44V20h-2.65a8.2 8.2 0 0 0-3.39.57 3.76 3.76 0 0 0-1.73 1.38 3.2 3.2 0 0 0-.5 1.64 3 3 0 0 0 .33 1.37 2.54 2.54 0 0 0 1 1.07 3.86 3.86 0 0 0 1.99.37M127.57 6.48a3.1 3.1 0 0 1-3.24-3.24 3.13 3.13 0 0 1 .91-2.34 3.49 3.49 0 0 1 4.68 0 3.17 3.17 0 0 1 .9 2.34 3.2 3.2 0 0 1-.9 2.34 3.17 3.17 0 0 1-2.35.9m-2.28 22.77v-20h4.58v20ZM141.94 36.94c-3.13 0-5.45-.43-6.95-1.27a4.2 4.2 0 0 1-2.25-3.92 4.34 4.34 0 0 1 .8-2.65 4.84 4.84 0 0 1 2.46-1.61 3.5 3.5 0 0 1-1.1-1.19 3.05 3.05 0 0 1-.42-1.57 3 3 0 0 1 .69-1.94 3.8 3.8 0 0 1 1.94-1.21 6.3 6.3 0 0 1-2.28-2.36 6.85 6.85 0 0 1-.83-3.4 6.66 6.66 0 0 1 1-3.72 6.77 6.77 0 0 1 2.89-2.45 11.5 11.5 0 0 1 8.77 0 6.83 6.83 0 0 1 2.91 2.45 6.73 6.73 0 0 1 1 3.76 6.63 6.63 0 0 1-1 3.68 6.8 6.8 0 0 1-2.92 2.46 10.5 10.5 0 0 1-4.43.87h-1.5c-1.34 0-2 .38-2 1.13s.67 1.09 2 1.09h4a10.7 10.7 0 0 1 3.61.52 6 6 0 0 1 2.31 1.39 5.1 5.1 0 0 1 1.21 1.91 6.5 6.5 0 0 1 .36 2.13 4.93 4.93 0 0 1-2.3 4.47c-1.53 1-3.9 1.46-7.09 1.46Zm.08-3.12h.85q4.66 0 4.67-2.79a2.38 2.38 0 0 0-.83-1.85 4.48 4.48 0 0 0-2.93-.73h-2.93a4.8 4.8 0 0 0-2.47.62 2.23 2.23 0 0 0-1 2.07 2.19 2.19 0 0 0 1.15 2 7.36 7.36 0 0 0 3.47.68Zm.24-13.93a3.9 3.9 0 0 0 2.93-1.05 4.13 4.13 0 0 0 1-3 4.2 4.2 0 0 0-1-3 4.47 4.47 0 0 0-5.84 0 4.2 4.2 0 0 0-1 3 4.13 4.13 0 0 0 1 3 3.87 3.87 0 0 0 2.91 1.05m3.09-8.54v-2a3.42 3.42 0 0 1 1.08-2.68 4.14 4.14 0 0 1 2.91-1h2.11v3.5h-2.13a1 1 0 0 0-.75.2 1.37 1.37 0 0 0-.18.84v1.14ZM154.8 29.25v-20h4.39v4.58l-.13-.82a7.43 7.43 0 0 1 2.55-3.01 7 7 0 0 1 4.1-1.17 6.64 6.64 0 0 1 3.75 1 6.3 6.3 0 0 1 2.28 2.83 11 11 0 0 1 .77 4.27v12.32h-4.6v-12a6.64 6.64 0 0 0-.82-3.57 3 3 0 0 0-2.77-1.3 4.27 4.27 0 0 0-3.6 1.81 9.05 9.05 0 0 0-1.35 5.43v9.67Z" class="cls-1"/><path d="M176.74 29.25V2.57h11.17a11.44 11.44 0 0 1 6.64 1.64A5.49 5.49 0 0 1 196.88 9a5.8 5.8 0 0 1-.83 3.24 5.5 5.5 0 0 1-2.12 1.89 8.4 8.4 0 0 1-2.61.82l.06-.07a8.27 8.27 0 0 1 4.67 2.22 6.6 6.6 0 0 1 1.76 4.9 6.76 6.76 0 0 1-1.28 4.32 7 7 0 0 1-3.38 2.27 14.7 14.7 0 0 1-4.59.69Zm4.8-16.14h6.06a5.77 5.77 0 0 0 3.18-.79A2.86 2.86 0 0 0 192 9.71a3.17 3.17 0 0 0-1-2.42 4.77 4.77 0 0 0-3.33-.94h-6.17Zm0 12.36h6.39a6.36 6.36 0 0 0 3.08-.62 3.44 3.44 0 0 0 1.52-1.6 5.3 5.3 0 0 0 .42-2.08 4.3 4.3 0 0 0-.64-2.41 4 4 0 0 0-1.92-1.5 8.9 8.9 0 0 0-3.24-.51h-5.61ZM207.67 29.71a6.5 6.5 0 0 1-3.73-1 6.2 6.2 0 0 1-2.27-2.84 11.2 11.2 0 0 1-.76-4.26V9.24h4.58V21.1a6.76 6.76 0 0 0 .87 3.74 3.2 3.2 0 0 0 2.89 1.32 4.4 4.4 0 0 0 2.41-.7 4.75 4.75 0 0 0 1.72-2.19 10.1 10.1 0 0 0 .65-3.93V9.24h4.59v20h-4.41v-4.7l.13.84a7.3 7.3 0 0 1-2.54 3.15 7 7 0 0 1-4.13 1.18M228.45 29.25a4.2 4.2 0 0 1-2.89-1 3.45 3.45 0 0 1-1.07-2.68V12.73h-3V9.24h3v-4l4.58-1.07v5.07h3.81v3.49h-3.81v12a1.33 1.33 0 0 0 .17.83 1 1 0 0 0 .75.21h3.06v3.48ZM240.12 29.25a4.22 4.22 0 0 1-2.91-1 3.45 3.45 0 0 1-1.07-2.68V1.46h4.59v23.27a1.3 1.3 0 0 0 .18.83 1 1 0 0 0 .75.21h1.68v3.48ZM257.54 25.34a4.8 4.8 0 0 1-2.9.87 4.29 4.29 0 0 1-3.78-1.84 8.16 8.16 0 0 1-1.25-4.16H264a16.3 16.3 0 0 0-.85-5.66 9.16 9.16 0 0 0-2.24-3.5 8 8 0 0 0-3-1.77 11.5 11.5 0 0 0-3.29-.5 10.1 10.1 0 0 0-5.13 1.28 8.9 8.9 0 0 0-3.49 3.63 11.6 11.6 0 0 0-1.26 5.56 11.5 11.5 0 0 0 1.26 5.56 9.2 9.2 0 0 0 3.52 3.63 10.25 10.25 0 0 0 5.15 1.28 11.2 11.2 0 0 0 3.76-.64 8.8 8.8 0 0 0 3.12-1.92 8.6 8.6 0 0 0 2.05-3.22l-4.26-1.19a5.06 5.06 0 0 1-1.8 2.59m-7.82-12.68a.48.48 0 0 1 .68-.48l4 2.27 4-2.27a.48.48 0 0 1 .68.48v5.06a.47.47 0 0 1-.68.47l-4-2.25-4 2.25a.47.47 0 0 1-.68-.47ZM267.27 29.25v-20h4.39v4.41l-.17-.55a6.85 6.85 0 0 1 2.67-3.25 7 7 0 0 1 3.71-1.07 7 7 0 0 1 1.12.09 4.6 4.6 0 0 1 1.08.32l-.41 4a7.5 7.5 0 0 0-2.2-.34 6.4 6.4 0 0 0-1.77.29 4.8 4.8 0 0 0-1.84 1.07 5.7 5.7 0 0 0-1.44 2.23 10.5 10.5 0 0 0-.56 3.77v9Z" class="cls-2"/></g></g></svg>